<?xml version="1.0" encoding="utf-8"?>
<!-- Generator: Adobe Illustrator 15.0.0, SVG Export Plug-In . SVG Version: 6.00 Build 0)  -->
<!DOCTYPE svg PUBLIC "-//W3C//DTD SVG 1.1//EN" "http://www.w3.org/Graphics/SVG/1.1/DTD/svg11.dtd">
<svg version="1.1" id="Layer_1" xmlns="http://www.w3.org/2000/svg" xmlns:xlink="http://www.w3.org/1999/xlink" x="0px" y="0px"
	 width="1118.67px" height="767.917px" viewBox="-81.333 20.417 1118.67 767.917"
	 enable-background="new -81.333 20.417 1118.67 767.917" xml:space="preserve">
<g>
	<g>
		<defs>
			<rect id="SVGID_1_" x="-39.333" y="54.031" width="1728.001" height="1296"/>
		</defs>
		<clipPath id="SVGID_2_">
			<use xlink:href="#SVGID_1_"  overflow="visible"/>
		</clipPath>
		<g clip-path="url(#SVGID_2_)">
			<g>
				<defs>
					<path id="SVGID_3_" d="M63.186,261.851c-24.396,0.003-44.173,19.736-60.58,42.78v39.041
						c16.407,29.12,39.012,51.674,66.894,51.671l778.685-0.068c28.59,0.041,51.783-23.071,70.717-52.263v-31.481
						c-18.934-27.149-41.508-49.707-69.385-49.748L63.186,261.851z"/>
				</defs>
				<clipPath id="SVGID_4_">
					<use xlink:href="#SVGID_3_"  overflow="visible"/>
				</clipPath>
				
					<linearGradient id="SVGID_5_" gradientUnits="userSpaceOnUse" x1="554.9595" y1="-246.8438" x2="555.9595" y2="-246.8438" gradientTransform="matrix(2 172 -172 2 -43108.5 -94819.875)">
					<stop  offset="0" style="stop-color:#FFFFFF"/>
					<stop  offset="0.9513" style="stop-color:#D81E1A"/>
					<stop  offset="1" style="stop-color:#D81E1A"/>
				</linearGradient>
				<polygon clip-path="url(#SVGID_4_)" fill="url(#SVGID_5_)" points="918.777,251.128 920.453,395.328 2.73,405.999 1.054,261.8 
									"/>
			</g>
			<g>
				<defs>
					<rect id="SVGID_6_" x="-39.333" y="54.031" width="1728.001" height="1296"/>
				</defs>
				<clipPath id="SVGID_7_">
					<use xlink:href="#SVGID_6_"  overflow="visible"/>
				</clipPath>
				<g clip-path="url(#SVGID_7_)">
					<g>
						<defs>
							<rect id="SVGID_8_" x="-39.333" y="54.031" width="1728.001" height="1296"/>
						</defs>
						<clipPath id="SVGID_9_">
							<use xlink:href="#SVGID_8_"  overflow="visible"/>
						</clipPath>
						<path clip-path="url(#SVGID_9_)" fill="none" stroke="#000000" stroke-miterlimit="10" d="M848.186,395.274L69.5,395.342
							c-27.882,0.003-50.486-22.551-66.894-51.67v-39.041c16.408-23.045,36.184-42.779,60.581-42.781l786.332-0.068
							c27.875,0.04,50.451,22.6,69.383,49.748v31.48C899.969,372.203,876.773,395.315,848.186,395.274z"/>
					</g>
					<g>
						<defs>
							<rect id="SVGID_10_" x="-39.333" y="54.031" width="1728.001" height="1296"/>
						</defs>
						<clipPath id="SVGID_11_">
							<use xlink:href="#SVGID_10_"  overflow="visible"/>
						</clipPath>
						<g clip-path="url(#SVGID_11_)">
							<g>
								<defs>
									<path id="SVGID_12_" d="M52.085,591.646c-24.396,0.004-44.172,19.738-60.579,42.781v39.042
										c16.407,29.119,39.012,51.674,66.894,51.67l778.686-0.068c28.586,0.041,51.783-23.072,70.713-52.262v-31.483
										c-18.93-27.146-41.506-49.707-69.383-49.748L52.085,591.646z"/>
								</defs>
								<clipPath id="SVGID_13_">
									<use xlink:href="#SVGID_12_"  overflow="visible"/>
								</clipPath>
								
									<linearGradient id="SVGID_14_" gradientUnits="userSpaceOnUse" x1="561.2759" y1="-255.2397" x2="562.2759" y2="-255.2397" gradientTransform="matrix(0 -216 216 0 55581.5 122092.875)">
									<stop  offset="0" style="stop-color:#FFFFFF"/>
									<stop  offset="0.9513" style="stop-color:#D81E1A"/>
									<stop  offset="1" style="stop-color:#D81E1A"/>
								</linearGradient>
								<rect x="-8.494" y="591.577" clip-path="url(#SVGID_13_)" fill="url(#SVGID_14_)" width="916.292" height="133.565"/>
							</g>
							<g>
								<defs>
									<rect id="SVGID_15_" x="-39.333" y="54.031" width="1728.001" height="1296"/>
								</defs>
								<clipPath id="SVGID_16_">
									<use xlink:href="#SVGID_15_"  overflow="visible"/>
								</clipPath>
								<g clip-path="url(#SVGID_16_)">
									<g>
										<defs>
											<rect id="SVGID_17_" x="-39.333" y="54.031" width="1728.001" height="1296"/>
										</defs>
										<clipPath id="SVGID_18_">
											<use xlink:href="#SVGID_17_"  overflow="visible"/>
										</clipPath>
										<path clip-path="url(#SVGID_18_)" fill="none" stroke="#000000" stroke-miterlimit="10" d="M837.086,725.07L58.4,725.139
											c-27.882,0.004-50.486-22.551-66.895-51.67v-39.042c16.408-23.045,36.185-42.779,60.58-42.781l786.331-0.068
											c27.877,0.041,50.453,22.6,69.385,49.748v31.481C888.869,702,865.672,725.111,837.086,725.07z"/>
									</g>
									<g>
										<defs>
											<rect id="SVGID_19_" x="-39.333" y="54.031" width="1728.001" height="1296"/>
										</defs>
										<clipPath id="SVGID_20_">
											<use xlink:href="#SVGID_19_"  overflow="visible"/>
										</clipPath>
										<g clip-path="url(#SVGID_20_)">
											<g>
												<defs>
													<path id="SVGID_21_" d="M37.809,314.863c-25.954,0.002-46.992,20.996-64.445,45.513v41.533
														c17.454,30.979,41.501,54.971,71.163,54.967l828.389-0.072c30.412,0.044,55.088-24.544,75.229-55.6v-33.491
														c-20.141-28.881-44.156-52.88-73.813-52.923L37.809,314.863z"/>
												</defs>
												<clipPath id="SVGID_22_">
													<use xlink:href="#SVGID_21_"  overflow="visible"/>
												</clipPath>
												
													<linearGradient id="SVGID_23_" gradientUnits="userSpaceOnUse" x1="543.8765" y1="-231.7969" x2="544.8766" y2="-231.7969" gradientTransform="matrix(0 41 -41 0 -9042.9063 -22009.625)">
													<stop  offset="0" style="stop-color:#FFFFFF"/>
													<stop  offset="0.9513" style="stop-color:#D81E1A"/>
													<stop  offset="1" style="stop-color:#D81E1A"/>
												</linearGradient>
												<rect x="-26.636" y="314.79" clip-path="url(#SVGID_22_)" fill="url(#SVGID_23_)" width="974.781" height="142.09"/>
											</g>
											<g>
												<defs>
													<rect id="SVGID_24_" x="-39.333" y="54.031" width="1728.001" height="1296"/>
												</defs>
												<clipPath id="SVGID_25_">
													<use xlink:href="#SVGID_24_"  overflow="visible"/>
												</clipPath>
												<g clip-path="url(#SVGID_25_)">
													<g>
														<defs>
															<rect id="SVGID_26_" x="-39.333" y="54.031" width="1728.001" height="1296"/>
														</defs>
														<clipPath id="SVGID_27_">
															<use xlink:href="#SVGID_26_"  overflow="visible"/>
														</clipPath>
														<path clip-path="url(#SVGID_27_)" fill="none" stroke="#000000" stroke-miterlimit="10" d="M872.916,456.802
															l-828.389,0.074c-29.661,0.003-53.709-23.99-71.163-54.968v-41.533c17.454-24.517,38.492-45.51,64.445-45.512
															l836.523-0.074c29.654,0.043,53.672,24.043,73.813,52.924v33.49C928.004,432.258,903.328,456.846,872.916,456.802z"/>
													</g>
													<g>
														<defs>
															<rect id="SVGID_28_" x="-39.333" y="54.031" width="1728.001" height="1296"/>
														</defs>
														<clipPath id="SVGID_29_">
															<use xlink:href="#SVGID_28_"  overflow="visible"/>
														</clipPath>
														<g clip-path="url(#SVGID_29_)">
															<g>
																<defs>
																	<path id="SVGID_30_" d="M37.809,492.245c-25.954,0.002-46.992,20.996-64.445,45.513v41.534
																		c17.454,30.979,41.501,54.972,71.163,54.966l828.389-0.072c30.412,0.045,55.088-24.543,75.229-55.599v-33.491
																		c-20.141-28.883-44.156-52.881-73.813-52.924L37.809,492.245z"/>
																</defs>
																<clipPath id="SVGID_31_">
																	<use xlink:href="#SVGID_30_"  overflow="visible"/>
																</clipPath>
																
																	<linearGradient id="SVGID_32_" gradientUnits="userSpaceOnUse" x1="561.9067" y1="-256.0898" x2="562.9067" y2="-256.0898" gradientTransform="matrix(0 -176 176 0 45532.625 99659.75)">
																	<stop  offset="0" style="stop-color:#FFFFFF"/>
																	<stop  offset="0.9513" style="stop-color:#D81E1A"/>
																	<stop  offset="1" style="stop-color:#D81E1A"/>
																</linearGradient>
																
																	<rect x="-26.636" y="492.171" clip-path="url(#SVGID_31_)" fill="url(#SVGID_32_)" width="974.781" height="142.091"/>
															</g>
															<g>
																<defs>
																	<rect id="SVGID_33_" x="-39.333" y="54.031" width="1728.001" height="1296"/>
																</defs>
																<clipPath id="SVGID_34_">
																	<use xlink:href="#SVGID_33_"  overflow="visible"/>
																</clipPath>
																<g clip-path="url(#SVGID_34_)">
																	<g>
																		<defs>
																			<rect id="SVGID_35_" x="-39.333" y="54.031" width="1728.001" height="1296"/>
																		</defs>
																		<clipPath id="SVGID_36_">
																			<use xlink:href="#SVGID_35_"  overflow="visible"/>
																		</clipPath>
																		<path clip-path="url(#SVGID_36_)" fill="none" stroke="#000000" stroke-miterlimit="10" d="M872.916,634.185
																			l-828.389,0.074c-29.661,0.002-53.709-23.99-71.163-54.968v-41.534c17.454-24.517,38.492-45.51,64.445-45.513
																			l836.523-0.073c29.654,0.043,53.672,24.042,73.813,52.924v33.491C928.004,609.64,903.328,634.229,872.916,634.185
																			z"/>
																	</g>
																	<g>
																		<defs>
																			<rect id="SVGID_37_" x="-39.333" y="54.031" width="1728.001" height="1296"/>
																		</defs>
																		<clipPath id="SVGID_38_">
																			<use xlink:href="#SVGID_37_"  overflow="visible"/>
																		</clipPath>
																		<g clip-path="url(#SVGID_38_)">
																			<g>
																				<defs>
																					<path id="SVGID_39_" d="M15.993,410.412c-27.614,0.002-49.998,22.387-68.569,48.529v44.285
																						c18.571,33.03,44.156,58.614,75.716,58.612l881.386-0.079c32.357,0.046,58.613-26.172,80.043-59.283v-35.712
																						c-21.432-30.796-46.984-56.386-78.535-56.432L15.993,410.412z"/>
																				</defs>
																				<clipPath id="SVGID_40_">
																					<use xlink:href="#SVGID_39_"  overflow="visible"/>
																				</clipPath>
																				
																					<linearGradient id="SVGID_41_" gradientUnits="userSpaceOnUse" x1="554.8193" y1="-246.7783" x2="555.8188" y2="-246.7783" gradientTransform="matrix(4 168 -168 4 -43216.75 -91934)">
																					<stop  offset="0" style="stop-color:#FFFFFF"/>
																					<stop  offset="0.9513" style="stop-color:#D81E1A"/>
																					<stop  offset="1" style="stop-color:#D81E1A"/>
																				</linearGradient>
																				<polygon clip-path="url(#SVGID_40_)" fill="url(#SVGID_41_)" points="983.98,385.654 988.172,561.756 
																					-51.988,586.522 -56.182,410.419 																				"/>
																			</g>
																			<g>
																				<defs>
																					<rect id="SVGID_42_" x="-39.333" y="54.031" width="1728.001" height="1296"/>
																				</defs>
																				<clipPath id="SVGID_43_">
																					<use xlink:href="#SVGID_42_"  overflow="visible"/>
																				</clipPath>
																				<g clip-path="url(#SVGID_43_)">
																					<g>
																						<defs>
																							<rect id="SVGID_44_" x="-39.333" y="54.031" width="1728.001" height="1296"/>
																						</defs>
																						<defs>
																							<rect id="SVGID_45_" x="-39.333" y="54.031" width="1728.001" height="1296"/>
																						</defs>
																						<defs>
																							<rect id="SVGID_46_" x="-39.333" y="54.031" width="1728.001" height="1296"/>
																						</defs>
																						<defs>
																							<rect id="SVGID_47_" x="-39.333" y="54.031" width="1728.001" height="1296"/>
																						</defs>
																						<defs>
																							<rect id="SVGID_48_" x="-39.333" y="54.031" width="1728.001" height="1296"/>
																						</defs>
																						<defs>
																							<rect id="SVGID_49_" x="-39.333" y="54.031" width="1728.001" height="1296"/>
																						</defs>
																						<defs>
																							<rect id="SVGID_50_" x="-39.333" y="54.031" width="1728.001" height="1296"/>
																						</defs>
																						<defs>
																							<rect id="SVGID_51_" x="-39.333" y="54.031" width="1728.001" height="1296"/>
																						</defs>
																						<defs>
																							<rect id="SVGID_52_" x="-39.333" y="54.031" width="1728.001" height="1296"/>
																						</defs>
																						<defs>
																							<rect id="SVGID_53_" x="-39.333" y="54.031" width="1728.001" height="1296"/>
																						</defs>
																						<defs>
																							<rect id="SVGID_54_" x="-39.333" y="54.031" width="1728.001" height="1296"/>
																						</defs>
																						<defs>
																							<rect id="SVGID_55_" x="-39.333" y="54.031" width="1728.001" height="1296"/>
																						</defs>
																						<defs>
																							<rect id="SVGID_56_" x="-39.333" y="54.031" width="1728.001" height="1296"/>
																						</defs>
																						<defs>
																							<rect id="SVGID_57_" x="-39.333" y="54.031" width="1728.001" height="1296"/>
																						</defs>
																						<defs>
																							<rect id="SVGID_58_" x="-39.333" y="54.031" width="1728.001" height="1296"/>
																						</defs>
																						<defs>
																							<rect id="SVGID_59_" x="-39.333" y="54.031" width="1728.001" height="1296"/>
																						</defs>
																						<defs>
																							<rect id="SVGID_60_" x="-39.333" y="54.031" width="1728.001" height="1296"/>
																						</defs>
																						<defs>
																							<rect id="SVGID_61_" x="-39.333" y="54.031" width="1728.001" height="1296"/>
																						</defs>
																						<defs>
																							<rect id="SVGID_62_" x="-39.333" y="54.031" width="1728.001" height="1296"/>
																						</defs>
																						<defs>
																							<rect id="SVGID_63_" x="-39.333" y="54.031" width="1728.001" height="1296"/>
																						</defs>
																						<defs>
																							<rect id="SVGID_64_" x="-39.333" y="54.031" width="1728.001" height="1296"/>
																						</defs>
																						<defs>
																							<rect id="SVGID_65_" x="-39.333" y="54.031" width="1728.001" height="1296"/>
																						</defs>
																						<defs>
																							<rect id="SVGID_66_" x="-39.333" y="54.031" width="1728.001" height="1296"/>
																						</defs>
																						<defs>
																							<rect id="SVGID_67_" x="-39.333" y="54.031" width="1728.001" height="1296"/>
																						</defs>
																						<defs>
																							<rect id="SVGID_68_" x="-39.333" y="54.031" width="1728.001" height="1296"/>
																						</defs>
																						<defs>
																							<rect id="SVGID_69_" x="-39.333" y="54.031" width="1728.001" height="1296"/>
																						</defs>
																						<defs>
																							<rect id="SVGID_70_" x="-39.333" y="54.031" width="1728.001" height="1296"/>
																						</defs>
																						<defs>
																							<rect id="SVGID_71_" x="-39.333" y="54.031" width="1728.001" height="1296"/>
																						</defs>
																						<defs>
																							<rect id="SVGID_72_" x="-39.333" y="54.031" width="1728.001" height="1296"/>
																						</defs>
																						<defs>
																							<rect id="SVGID_73_" x="-39.333" y="54.031" width="1728.001" height="1296"/>
																						</defs>
																						<defs>
																							<rect id="SVGID_74_" x="-39.333" y="54.031" width="1728.001" height="1296"/>
																						</defs>
																						<defs>
																							<rect id="SVGID_75_" x="-39.333" y="54.031" width="1728.001" height="1296"/>
																						</defs>
																						<defs>
																							<rect id="SVGID_76_" x="-39.333" y="54.031" width="1728.001" height="1296"/>
																						</defs>
																						<defs>
																							<rect id="SVGID_77_" x="-39.333" y="54.031" width="1728.001" height="1296"/>
																						</defs>
																						<defs>
																							<rect id="SVGID_78_" x="-39.333" y="54.031" width="1728.001" height="1296"/>
																						</defs>
																						<defs>
																							<rect id="SVGID_79_" x="-39.333" y="54.031" width="1728.001" height="1296"/>
																						</defs>
																						<defs>
																							<rect id="SVGID_80_" x="-39.333" y="54.031" width="1728.001" height="1296"/>
																						</defs>
																						<defs>
																							<rect id="SVGID_81_" x="-39.333" y="54.031" width="1728.001" height="1296"/>
																						</defs>
																						<defs>
																							<rect id="SVGID_82_" x="-39.333" y="54.031" width="1728.001" height="1296"/>
																						</defs>
																						<defs>
																							<rect id="SVGID_83_" x="-39.333" y="54.031" width="1728.001" height="1296"/>
																						</defs>
																						<defs>
																							<rect id="SVGID_84_" x="-39.333" y="54.031" width="1728.001" height="1296"/>
																						</defs>
																						<defs>
																							<rect id="SVGID_85_" x="-39.333" y="54.031" width="1728.001" height="1296"/>
																						</defs>
																						<clipPath id="SVGID_86_">
																							<use xlink:href="#SVGID_44_"  overflow="visible"/>
																						</clipPath>
																						<clipPath id="SVGID_87_" clip-path="url(#SVGID_86_)">
																							<use xlink:href="#SVGID_45_"  overflow="visible"/>
																						</clipPath>
																						<clipPath id="SVGID_88_" clip-path="url(#SVGID_87_)">
																							<use xlink:href="#SVGID_46_"  overflow="visible"/>
																						</clipPath>
																						<clipPath id="SVGID_89_" clip-path="url(#SVGID_88_)">
																							<use xlink:href="#SVGID_47_"  overflow="visible"/>
																						</clipPath>
																						<clipPath id="SVGID_90_" clip-path="url(#SVGID_89_)">
																							<use xlink:href="#SVGID_48_"  overflow="visible"/>
																						</clipPath>
																						<clipPath id="SVGID_91_" clip-path="url(#SVGID_90_)">
																							<use xlink:href="#SVGID_49_"  overflow="visible"/>
																						</clipPath>
																						<clipPath id="SVGID_92_" clip-path="url(#SVGID_91_)">
																							<use xlink:href="#SVGID_50_"  overflow="visible"/>
																						</clipPath>
																						<clipPath id="SVGID_93_" clip-path="url(#SVGID_92_)">
																							<use xlink:href="#SVGID_51_"  overflow="visible"/>
																						</clipPath>
																						<clipPath id="SVGID_94_" clip-path="url(#SVGID_93_)">
																							<use xlink:href="#SVGID_52_"  overflow="visible"/>
																						</clipPath>
																						<clipPath id="SVGID_95_" clip-path="url(#SVGID_94_)">
																							<use xlink:href="#SVGID_53_"  overflow="visible"/>
																						</clipPath>
																						<clipPath id="SVGID_96_" clip-path="url(#SVGID_95_)">
																							<use xlink:href="#SVGID_54_"  overflow="visible"/>
																						</clipPath>
																						<clipPath id="SVGID_97_" clip-path="url(#SVGID_96_)">
																							<use xlink:href="#SVGID_55_"  overflow="visible"/>
																						</clipPath>
																						<clipPath id="SVGID_98_" clip-path="url(#SVGID_97_)">
																							<use xlink:href="#SVGID_56_"  overflow="visible"/>
																						</clipPath>
																						<clipPath id="SVGID_99_" clip-path="url(#SVGID_98_)">
																							<use xlink:href="#SVGID_57_"  overflow="visible"/>
																						</clipPath>
																						<clipPath id="SVGID_100_" clip-path="url(#SVGID_99_)">
																							<use xlink:href="#SVGID_58_"  overflow="visible"/>
																						</clipPath>
																						<clipPath id="SVGID_101_" clip-path="url(#SVGID_100_)">
																							<use xlink:href="#SVGID_59_"  overflow="visible"/>
																						</clipPath>
																						<clipPath id="SVGID_102_" clip-path="url(#SVGID_101_)">
																							<use xlink:href="#SVGID_60_"  overflow="visible"/>
																						</clipPath>
																						<clipPath id="SVGID_103_" clip-path="url(#SVGID_102_)">
																							<use xlink:href="#SVGID_61_"  overflow="visible"/>
																						</clipPath>
																						<clipPath id="SVGID_104_" clip-path="url(#SVGID_103_)">
																							<use xlink:href="#SVGID_62_"  overflow="visible"/>
																						</clipPath>
																						<clipPath id="SVGID_105_" clip-path="url(#SVGID_104_)">
																							<use xlink:href="#SVGID_63_"  overflow="visible"/>
																						</clipPath>
																						<clipPath id="SVGID_106_" clip-path="url(#SVGID_105_)">
																							<use xlink:href="#SVGID_64_"  overflow="visible"/>
																						</clipPath>
																						<clipPath id="SVGID_107_" clip-path="url(#SVGID_106_)">
																							<use xlink:href="#SVGID_65_"  overflow="visible"/>
																						</clipPath>
																						<clipPath id="SVGID_108_" clip-path="url(#SVGID_107_)">
																							<use xlink:href="#SVGID_66_"  overflow="visible"/>
																						</clipPath>
																						<clipPath id="SVGID_109_" clip-path="url(#SVGID_108_)">
																							<use xlink:href="#SVGID_67_"  overflow="visible"/>
																						</clipPath>
																						<clipPath id="SVGID_110_" clip-path="url(#SVGID_109_)">
																							<use xlink:href="#SVGID_68_"  overflow="visible"/>
																						</clipPath>
																						<clipPath id="SVGID_111_" clip-path="url(#SVGID_110_)">
																							<use xlink:href="#SVGID_69_"  overflow="visible"/>
																						</clipPath>
																						<clipPath id="SVGID_112_" clip-path="url(#SVGID_111_)">
																							<use xlink:href="#SVGID_70_"  overflow="visible"/>
																						</clipPath>
																						<clipPath id="SVGID_113_" clip-path="url(#SVGID_112_)">
																							<use xlink:href="#SVGID_71_"  overflow="visible"/>
																						</clipPath>
																						<clipPath id="SVGID_114_" clip-path="url(#SVGID_113_)">
																							<use xlink:href="#SVGID_72_"  overflow="visible"/>
																						</clipPath>
																						<clipPath id="SVGID_115_" clip-path="url(#SVGID_114_)">
																							<use xlink:href="#SVGID_73_"  overflow="visible"/>
																						</clipPath>
																						<clipPath id="SVGID_116_" clip-path="url(#SVGID_115_)">
																							<use xlink:href="#SVGID_74_"  overflow="visible"/>
																						</clipPath>
																						<clipPath id="SVGID_117_" clip-path="url(#SVGID_116_)">
																							<use xlink:href="#SVGID_75_"  overflow="visible"/>
																						</clipPath>
																						<clipPath id="SVGID_118_" clip-path="url(#SVGID_117_)">
																							<use xlink:href="#SVGID_76_"  overflow="visible"/>
																						</clipPath>
																						<clipPath id="SVGID_119_" clip-path="url(#SVGID_118_)">
																							<use xlink:href="#SVGID_77_"  overflow="visible"/>
																						</clipPath>
																						<clipPath id="SVGID_120_" clip-path="url(#SVGID_119_)">
																							<use xlink:href="#SVGID_78_"  overflow="visible"/>
																						</clipPath>
																						<clipPath id="SVGID_121_" clip-path="url(#SVGID_120_)">
																							<use xlink:href="#SVGID_79_"  overflow="visible"/>
																						</clipPath>
																						<clipPath id="SVGID_122_" clip-path="url(#SVGID_121_)">
																							<use xlink:href="#SVGID_80_"  overflow="visible"/>
																						</clipPath>
																						<clipPath id="SVGID_123_" clip-path="url(#SVGID_122_)">
																							<use xlink:href="#SVGID_81_"  overflow="visible"/>
																						</clipPath>
																						<clipPath id="SVGID_124_" clip-path="url(#SVGID_123_)">
																							<use xlink:href="#SVGID_82_"  overflow="visible"/>
																						</clipPath>
																						<clipPath id="SVGID_125_" clip-path="url(#SVGID_124_)">
																							<use xlink:href="#SVGID_83_"  overflow="visible"/>
																						</clipPath>
																						<clipPath id="SVGID_126_" clip-path="url(#SVGID_125_)">
																							<use xlink:href="#SVGID_84_"  overflow="visible"/>
																						</clipPath>
																						<clipPath id="SVGID_127_" clip-path="url(#SVGID_126_)">
																							<use xlink:href="#SVGID_85_"  overflow="visible"/>
																						</clipPath>
																						
																							<linearGradient id="SVGID_128_" gradientUnits="userSpaceOnUse" x1="557.7222" y1="-252.0781" x2="558.7212" y2="-252.0781" gradientTransform="matrix(1038.14 0 0 1038.14 -579046.5625 262178.25)">
																							<stop  offset="0" style="stop-color:#FFFFFF"/>
																							<stop  offset="1" style="stop-color:#231F20"/>
																						</linearGradient>
																					
																							<line clip-path="url(#SVGID_127_)" fill="none" stroke="#000000" stroke-miterlimit="10" x1="121.753" y1="725.141" x2="194.611" y2="725.129"/>
																						
																							<line clip-path="url(#SVGID_127_)" fill="none" stroke="#000000" stroke-miterlimit="10" x1="191.637" y1="725.141" x2="121.753" y2="725.141"/>
																						<path clip-path="url(#SVGID_127_)" d="M189.753,401.531v151l-0.143,0.209l1.717,4.942
																							c0.235,0.678,0.419,1.369,0.552,2.072l31.229,165.322l0.145-0.045h-70l-0.03,0.045l-31.428-166.378
																							l-0.042-0.168v-151l0.042-0.331l38.571-145.418l-0.113,0.249h66l0.426-0.249l-38.57,145.418"/>
																						
																							<path clip-path="url(#SVGID_127_)" fill="none" stroke="#000000" stroke-width="3" stroke-miterlimit="10" d="
																							M189.753,401.531v151l-0.143,0.209l1.717,4.942c0.235,0.678,0.419,1.369,0.552,2.072l31.229,165.322
																							l0.145-0.045h-70l-0.03,0.045l-31.428-166.378l-0.042-0.168v-151l0.042-0.331l38.571-145.418l-0.113,0.249h66
																							l0.426-0.249l-38.57,145.418"/>
																						<path clip-path="url(#SVGID_127_)" fill="#1E1203" d="M390.233,406.738
																							c-6.871-0.835-13.639-2.001-20.274-3.488c8.015-23.448,11.104-45.812,11.176-68.051
																							c6.666,0.001,13.333,0.001,19.999,0.002C401.086,358.776,397.87,382.428,390.233,406.738"/>
																						
																							<path clip-path="url(#SVGID_127_)" fill="none" stroke="#000000" stroke-width="10" stroke-miterlimit="10" d="
																							M390.233,406.738c-6.871-0.835-13.639-2.001-20.274-3.488c8.015-23.448,11.104-45.812,11.176-68.051
																							c6.666,0.001,13.333,0.001,19.999,0.002C401.086,358.776,397.87,382.428,390.233,406.738z"/>
																						<path clip-path="url(#SVGID_127_)" fill="#1E1203" d="M400.975,343.979
																							c-6.668-0.12-13.335-0.285-19.998-0.494c0.84-25.034-2.036-50.004-11.019-76.391
																							c6.637-1.487,13.404-2.652,20.274-3.488C398.8,290.956,401.86,317.449,400.975,343.979"/>
																						
																							<path clip-path="url(#SVGID_127_)" fill="none" stroke="#000000" stroke-width="10" stroke-miterlimit="10" d="
																							M400.975,343.979c-6.668-0.12-13.335-0.285-19.998-0.494c0.84-25.034-2.036-50.004-11.019-76.391
																							c6.637-1.487,13.404-2.652,20.274-3.488C398.8,290.956,401.86,317.449,400.975,343.979z"/>
																						<path clip-path="url(#SVGID_127_)" fill="#1E1203" d="M381.123,721.4c-6.861-0.873-13.623-2.063-20.258-3.559
																							c8.006-23.273,11.336-45.539,11.792-67.607c6.666,0.098,13.332,0.178,19.999,0.236
																							C392.217,673.824,388.775,697.297,381.123,721.4"/>
																						
																							<path clip-path="url(#SVGID_127_)" fill="none" stroke="#000000" stroke-width="10" stroke-miterlimit="10" d="
																							M381.123,721.4c-6.861-0.873-13.623-2.063-20.258-3.559c8.006-23.273,11.336-45.539,11.792-67.607
																							c6.666,0.098,13.332,0.178,19.999,0.236C392.217,673.824,388.775,697.297,381.123,721.4z"/>
																						<path clip-path="url(#SVGID_127_)" fill="#1E1203" d="M392.657,650.473c-6.667-0.061-13.334-0.139-20-0.238
																							c0.354-24.819-2.814-49.69-11.792-75.883c6.637-1.494,13.396-2.684,20.259-3.556
																							C389.711,597.913,393.044,624.208,392.657,650.473"/>
																						
																							<path clip-path="url(#SVGID_127_)" fill="none" stroke="#000000" stroke-width="10" stroke-miterlimit="10" d="
																							M392.657,650.473c-6.667-0.061-13.334-0.139-20-0.238c0.354-24.819-2.814-49.69-11.792-75.883
																							c6.637-1.494,13.396-2.684,20.259-3.556C389.711,597.913,393.044,624.208,392.657,650.473z"/>
																						<path clip-path="url(#SVGID_127_)" fill="#1E1203" d="M372.152,428.569
																							c-6.845,1.069-13.708,1.714-20.567,1.861c0.285-28.274,0.303-52.966,0.313-77.496
																							c6.667,0.005,13.334-0.021,20.001-0.073C371.914,376.992,371.959,401.261,372.152,428.569"/>
																						
																							<path clip-path="url(#SVGID_127_)" fill="none" stroke="#000000" stroke-width="10" stroke-miterlimit="10" d="
																							M372.152,428.569c-6.845,1.069-13.708,1.714-20.567,1.861c0.285-28.274,0.303-52.966,0.313-77.496
																							c6.667,0.005,13.334-0.021,20.001-0.073C371.914,376.992,371.959,401.261,372.152,428.569z"/>
																						<path clip-path="url(#SVGID_127_)" fill="#1E1203" d="M371.899,352.861
																							c-6.667,0.052-13.334,0.078-20.001,0.073c-0.005-27.594,0.004-54.876-0.313-86.676
																							c6.859,0.149,13.723,0.793,20.566,1.863C371.938,298.833,371.899,325.716,371.899,352.861"/>
																						
																							<path clip-path="url(#SVGID_127_)" fill="none" stroke="#000000" stroke-width="10" stroke-miterlimit="10" d="
																							M371.899,352.861c-6.667,0.052-13.334,0.078-20.001,0.073c-0.005-27.594,0.004-54.876-0.313-86.676
																							c6.859,0.149,13.723,0.793,20.566,1.863C371.938,298.833,371.899,325.716,371.899,352.861z"/>
																						<path clip-path="url(#SVGID_127_)" fill="#1E1203" d="M347.693,423.35c-6.844,1.088-13.706,1.74-20.566,1.887
																							c0.274-28.415,0.28-53.146,0.289-77.813c6.666,0.002,13.334-0.011,20-0.039
																							C347.427,371.631,347.479,395.936,347.693,423.35"/>
																						
																							<path clip-path="url(#SVGID_127_)" fill="none" stroke="#000000" stroke-width="10" stroke-miterlimit="10" d="
																							M347.693,423.35c-6.844,1.088-13.706,1.74-20.566,1.887c0.274-28.415,0.28-53.146,0.289-77.813
																							c6.666,0.002,13.334-0.011,20-0.039C347.427,371.631,347.479,395.936,347.693,423.35z"/>
																						<path clip-path="url(#SVGID_127_)" fill="#1E1203" d="M347.417,351.865
																							c-6.667,0.081-13.335,0.121-20.003,0.116c-0.004-27.776,0.017-55.093-0.288-87.049
																							c6.86,0.146,13.723,0.799,20.566,1.887C347.455,297.649,347.412,324.563,347.417,351.865"/>
																						
																							<path clip-path="url(#SVGID_127_)" fill="none" stroke="#000000" stroke-width="10" stroke-miterlimit="10" d="
																							M347.417,351.865c-6.667,0.081-13.335,0.121-20.003,0.116c-0.004-27.776,0.017-55.093-0.288-87.049
																							c6.86,0.146,13.723,0.799,20.566,1.887C347.455,297.649,347.412,324.563,347.417,351.865z"/>
																						<path clip-path="url(#SVGID_127_)" fill="#1E1203" d="M338.82,719.068c-6.84,1.137-13.703,1.816-20.563,1.955
																							c0.188-22.273,0.209-42.156,0.221-61.637c6.67,0.012,13.342-0.08,20.012-0.256
																							C338.523,678.221,338.598,697.652,338.82,719.068"/>
																						
																							<path clip-path="url(#SVGID_127_)" fill="none" stroke="#000000" stroke-width="10" stroke-miterlimit="10" d="
																							M338.82,719.068c-6.84,1.137-13.703,1.816-20.563,1.955c0.188-22.273,0.209-42.156,0.221-61.637
																							c6.67,0.012,13.342-0.08,20.012-0.256C338.523,678.221,338.598,697.652,338.82,719.068z"/>
																						<path clip-path="url(#SVGID_127_)" fill="#1E1203" d="M338.49,659.131c-6.671,0.176-13.342,0.27-20.013,0.258
																							c-0.005-28.378,0.045-55.794-0.22-88.218c6.86,0.139,13.724,0.817,20.563,1.956
																							C338.51,604.308,338.459,631.319,338.49,659.131"/>
																						
																							<path clip-path="url(#SVGID_127_)" fill="none" stroke="#000000" stroke-width="10" stroke-miterlimit="10" d="
																							M338.49,659.131c-6.671,0.176-13.342,0.27-20.013,0.258c-0.005-28.378,0.045-55.794-0.22-88.218
																							c6.86,0.139,13.724,0.817,20.563,1.956C338.51,604.308,338.459,631.319,338.49,659.131z"/>
																						<path clip-path="url(#SVGID_127_)" fill="#1E1203" d="M365.573,718.803
																							c-6.838,1.158-13.701,1.85-20.562,1.984c0.224-29.014,0.19-53.926,0.196-79.245
																							c6.667-0.006,13.336,0.039,20.003,0.127C365.201,666.471,365.265,690.939,365.573,718.803"/>
																						
																							<path clip-path="url(#SVGID_127_)" fill="none" stroke="#000000" stroke-width="10" stroke-miterlimit="10" d="
																							M365.573,718.803c-6.838,1.158-13.701,1.85-20.562,1.984c0.224-29.014,0.19-53.926,0.196-79.245
																							c6.667-0.006,13.336,0.039,20.003,0.127C365.201,666.471,365.265,690.939,365.573,718.803z"/>
																						<path clip-path="url(#SVGID_127_)" fill="#1E1203" d="M365.223,663.264
																							c-6.673,0.223-13.347,0.336-20.019,0.322c-0.006-28.655,0.052-56.12-0.194-88.748
																							c6.86,0.137,13.725,0.826,20.562,1.984C365.231,608.159,365.179,635.218,365.223,663.264"/>
																						
																							<path clip-path="url(#SVGID_127_)" fill="none" stroke="#000000" stroke-width="10" stroke-miterlimit="10" d="
																							M365.223,663.264c-6.673,0.223-13.347,0.336-20.019,0.322c-0.006-28.655,0.052-56.12-0.194-88.748
																							c6.86,0.137,13.725,0.826,20.562,1.984C365.231,608.159,365.179,635.218,365.223,663.264z"/>
																						<path clip-path="url(#SVGID_127_)" fill="#1E1203" d="M321.411,321.836
																							c-6.666-0.113-13.332-0.228-19.997-0.341c0.342-20.094,3.423-40.153,9.245-59.609
																							c6.387,1.91,12.773,3.822,19.161,5.732C324.525,285.315,321.721,303.561,321.411,321.836"/>
																						
																							<path clip-path="url(#SVGID_127_)" fill="none" stroke="#000000" stroke-width="9" stroke-miterlimit="10" d="
																							M321.411,321.836c-6.666-0.113-13.332-0.228-19.997-0.341c0.342-20.094,3.423-40.153,9.245-59.609
																							c6.387,1.91,12.773,3.822,19.161,5.732C324.525,285.315,321.721,303.561,321.411,321.836z"/>
																						<path clip-path="url(#SVGID_127_)" fill="#1E1203" d="M329.82,382.898c-6.388,1.91-12.774,3.821-19.161,5.732
																							c-6.548-21.884-9.63-44.532-9.245-67.136c6.666,0.113,13.331,0.228,19.997,0.341
																							C321.061,342.395,323.864,362.993,329.82,382.898"/>
																						
																							<path clip-path="url(#SVGID_127_)" fill="none" stroke="#000000" stroke-width="9" stroke-miterlimit="10" d="
																							M329.82,382.898c-6.388,1.91-12.774,3.821-19.161,5.732c-6.548-21.884-9.63-44.532-9.245-67.136
																							c6.666,0.113,13.331,0.228,19.997,0.341C321.061,342.395,323.864,362.993,329.82,382.898z"/>
																						<path clip-path="url(#SVGID_127_)" fill="#1E1203" d="M313.289,659.324
																							c-6.666-0.064-13.333-0.131-19.999-0.195c0.198-20.179,3.189-40.334,8.974-59.882l19.178,5.674
																							C316.186,622.681,313.468,640.993,313.289,659.324"/>
																						
																							<path clip-path="url(#SVGID_127_)" fill="none" stroke="#000000" stroke-width="10" stroke-miterlimit="10" d="
																							M313.289,659.324c-6.666-0.064-13.333-0.131-19.999-0.195c0.198-20.179,3.189-40.334,8.974-59.882
																							l19.178,5.674C316.186,622.681,313.468,640.993,313.289,659.324z"/>
																						<path clip-path="url(#SVGID_127_)" fill="#1E1203" d="M321.441,717.613l-19.179,5.674
																							c-6.507-21.986-9.479-44.744-8.917-67.436c6.665,0.164,13.33,0.33,19.994,0.494
																							C312.83,676.961,315.53,697.637,321.441,717.613"/>
																						
																							<path clip-path="url(#SVGID_127_)" fill="none" stroke="#000000" stroke-width="10" stroke-miterlimit="10" d="
																							M321.441,717.613l-19.179,5.674c-6.507-21.986-9.479-44.744-8.917-67.436
																							c6.665,0.164,13.33,0.33,19.994,0.494C312.83,676.961,315.53,697.637,321.441,717.613z"/>
																						
																						
																					
																						
																						<g clip-path="url(#SVGID_127_)">

																							<g>
																								<defs>
																									<rect id="SVGID_131_" x="-39.333" y="54.031" width="1728.001" height="1296"/>
																								</defs>
																								<clipPath id="SVGID_132_">
																									<use xlink:href="#SVGID_131_"  overflow="visible"/>
																								</clipPath>
																								<g clip-path="url(#SVGID_132_)">
																					
																									<g>
																										<defs>
																											<rect id="SVGID_135_" x="-39.333" y="54.031" width="1728.001" height="1296"/>
																										</defs>
																										<clipPath id="SVGID_136_">
																											<use xlink:href="#SVGID_135_"  overflow="visible"/>
																										</clipPath>
																										<g clip-path="url(#SVGID_136_)">
																									
																											<g>
																												<defs>
																													<rect id="SVGID_137_" x="-39.333" y="54.031" width="1728.001" height="1296"/>
																												</defs>
																												<defs>
																													<rect id="SVGID_138_" x="-39.333" y="54.031" width="1728.001" height="1296"/>
																												</defs>
																												<defs>
																													<rect id="SVGID_139_" x="-39.333" y="54.031" width="1728.001" height="1296"/>
																												</defs>
																												<defs>
																													<rect id="SVGID_140_" x="-39.333" y="54.031" width="1728.001" height="1296"/>
																												</defs>
																												<defs>
																													<rect id="SVGID_141_" x="-39.333" y="54.031" width="1728.001" height="1296"/>
																												</defs>
																												<defs>
																													<rect id="SVGID_142_" x="-39.333" y="54.031" width="1728.001" height="1296"/>
																												</defs>
																												<defs>
																													<rect id="SVGID_143_" x="-39.333" y="54.031" width="1728.001" height="1296"/>
																												</defs>
																												<defs>
																													<rect id="SVGID_144_" x="-39.333" y="54.031" width="1728.001" height="1296"/>
																												</defs>
																												<defs>
																													<rect id="SVGID_145_" x="-39.333" y="54.031" width="1728.001" height="1296"/>
																												</defs>
																												<defs>
																													<rect id="SVGID_146_" x="-39.333" y="54.031" width="1728.001" height="1296"/>
																												</defs>
																												<clipPath id="SVGID_147_">
																													<use xlink:href="#SVGID_137_"  overflow="visible"/>
																												</clipPath>
																												<clipPath id="SVGID_148_" clip-path="url(#SVGID_147_)">
																													<use xlink:href="#SVGID_138_"  overflow="visible"/>
																												</clipPath>
																												<clipPath id="SVGID_149_" clip-path="url(#SVGID_148_)">
																													<use xlink:href="#SVGID_139_"  overflow="visible"/>
																												</clipPath>
																												<clipPath id="SVGID_150_" clip-path="url(#SVGID_149_)">
																													<use xlink:href="#SVGID_140_"  overflow="visible"/>
																												</clipPath>
																												<clipPath id="SVGID_151_" clip-path="url(#SVGID_150_)">
																													<use xlink:href="#SVGID_141_"  overflow="visible"/>
																												</clipPath>
																												<clipPath id="SVGID_152_" clip-path="url(#SVGID_151_)">
																													<use xlink:href="#SVGID_142_"  overflow="visible"/>
																												</clipPath>
																												<clipPath id="SVGID_153_" clip-path="url(#SVGID_152_)">
																													<use xlink:href="#SVGID_143_"  overflow="visible"/>
																												</clipPath>
																												<clipPath id="SVGID_154_" clip-path="url(#SVGID_153_)">
																													<use xlink:href="#SVGID_144_"  overflow="visible"/>
																												</clipPath>
																												<clipPath id="SVGID_155_" clip-path="url(#SVGID_154_)">
																													<use xlink:href="#SVGID_145_"  overflow="visible"/>
																												</clipPath>
																												<clipPath id="SVGID_156_" clip-path="url(#SVGID_155_)">
																													<use xlink:href="#SVGID_146_"  overflow="visible"/>
																												</clipPath>
																												
																												<polyline clip-path="url(#SVGID_156_)" points="720.143,585.327 720.143,434.328 720.286,434.12 
																													718.216,428.161 686.788,261.783 686.643,261.828 756.643,261.828 756.672,261.783 788.102,428.161 
																													788.145,428.328 788.145,579.328 788.102,579.66 749.53,725.078 749.643,724.828 683.643,724.828 
																													683.216,725.078 721.788,579.66 																												"/>
																												
																													<polyline clip-path="url(#SVGID_156_)" fill="none" stroke="#000000" stroke-width="3" stroke-miterlimit="10" points="
																													720.143,585.327 720.143,434.328 720.286,434.12 718.216,428.161 686.788,261.783 686.643,261.828 
																													756.643,261.828 756.672,261.783 788.102,428.161 788.145,428.328 788.145,579.328 788.102,579.66 
																													749.53,725.078 749.643,724.828 683.643,724.828 683.216,725.078 721.788,579.66 
																																																									"/>
																											</g>
																										</g>
																										<polygon clip-path="url(#SVGID_136_)" fill="#090C1A" points="819.984,325.469 36.647,325.469 
																											65.214,275.988 848.553,275.988 																										"/>
																										
																										
																										
																										
																									
																										
																										
																												
																									</g>
																								</g>
																							</g>
																						</g>
																					</g>
																				</g>
																			</g>
																		</g>
																	</g>
																</g>
															</g>
														</g>
													</g>
												</g>
											</g>
										</g>
									</g>
								</g>
							</g>
						</g>
					</g>
				</g>
			</g>
		</g>
	</g>
</g>







</svg>
