<?xml version="1.0" encoding="utf-8"?>
<!-- Generator: Adobe Illustrator 15.0.0, SVG Export Plug-In . SVG Version: 6.00 Build 0)  -->
<!DOCTYPE svg PUBLIC "-//W3C//DTD SVG 1.1//EN" "http://www.w3.org/Graphics/SVG/1.1/DTD/svg11.dtd">
<svg version="1.1" id="Layer_1" xmlns="http://www.w3.org/2000/svg" xmlns:xlink="http://www.w3.org/1999/xlink" x="0px" y="0px"
	 width="1118.67px" height="767.917px" viewBox="-81.333 20.417 1118.67 767.917"
	 enable-background="new -81.333 20.417 1118.67 767.917" xml:space="preserve">
	 
	 
<path clip-path="url(#SVGID_127_)" fill="#13002A" d="M378.138,646.097h-46.308
c-63.937,0-115.768-51.833-115.768-115.769V484.02c0-63.938,51.831-115.769,115.768-115.769h46.308
c63.938,0,115.769,51.831,115.769,115.769v46.309C493.907,594.265,442.076,646.097,378.138,646.097"/>

<path clip-path="url(#SVGID_127_)" fill="none" stroke="#000000" stroke-miterlimit="10" d="M378.138,646.097
h-46.308c-63.937,0-115.768-51.833-115.768-115.769V484.02c0-63.938,51.831-115.769,115.768-115.769h46.308
c63.938,0,115.769,51.831,115.769,115.769v46.309C493.907,594.265,442.076,646.097,378.138,646.097z"/>

<path clip-path="url(#SVGID_127_)" fill="#FFFFFF" d="M355.923,607.161L355.923,607.161
c-56.057,0-101.5-45.441-101.5-101.5c0-56.057,45.443-101.5,101.5-101.5s101.5,45.443,101.5,101.5
C457.423,561.719,411.98,607.161,355.923,607.161"/>

<path clip-path="url(#SVGID_127_)" fill="none" stroke="#000000" stroke-width="10" stroke-miterlimit="10" d="
M353.369,608.675L353.369,608.675c-56.057,0-101.5-45.442-101.5-101.5c0-56.057,45.443-101.5,101.5-101.5
s101.5,45.443,101.5,101.5C454.869,563.232,409.425,608.675,353.369,608.675z"/>

<rect x="382.271" y="430.423" fill="none" width="19.13" height="20.157"/>
<rect x="-39.333" y="54.031" fill="none" width="1728.001" height="1296"/>
<rect x="-39.333" y="54.031" fill="none" width="1728.001" height="1296"/>
<path fill="#1E1203" d="M373.09,427.812"/>
<path fill="#1E1203" d="M348.63,422.593"/>
<path fill="#1E1203" d="M348.63,422.593"/>
<path fill="none" stroke="#000000" stroke-width="10" stroke-miterlimit="10" d="M348.63,422.593"/>
<path fill="none" stroke="#000000" stroke-width="10" stroke-miterlimit="10" d="M319.196,570.413"/>
<path fill="none" stroke="#000000" stroke-width="10" stroke-miterlimit="10" d="M345.949,574.082"/>



<g opacity="0.57">
	<g>
		<defs>
			<rect id="SVGID_177_" x="303.361" y="430.41" width="20.157" height="19.13"/>
		</defs>
		<clipPath id="SVGID_178_">
			<use xlink:href="#SVGID_177_"  overflow="visible"/>
		</clipPath>
		
			<line clip-path="url(#SVGID_178_)" fill="none" stroke="#000000" stroke-width="5" stroke-miterlimit="10" x1="321.824" y1="447.702" x2="305.054" y2="432.249"/>
			<line clip-path="url(#SVGID_180_)" fill="none" stroke="#000000" stroke-width="5" stroke-miterlimit="10" x1="296.708" y1="474.955" x2="279.939" y2="459.501"/>
			<line clip-path="url(#SVGID_176_)" fill="none" stroke="#000000" stroke-width="5" stroke-miterlimit="10" x1="355.923" y1="414.983" x2="355.923" y2="438.983"/>
			<line clip-path="url(#SVGID_174_)" fill="none" stroke="#000000" stroke-width="5" stroke-miterlimit="10" x1="411.906" y1="528.215" x2="428.675" y2="543.668"/>
			<line clip-path="url(#SVGID_172_)" fill="none" stroke="#000000" stroke-width="5" stroke-miterlimit="10" x1="386.232" y1="556.075" x2="403" y2="571.528"/>
			<line clip-path="url(#SVGID_170_)" fill="none" stroke="#000000" stroke-width="5" stroke-miterlimit="10" x1="353.699" y1="592.565" x2="353.699" y2="568.565"/>
			<line clip-path="url(#SVGID_168_)" fill="none" stroke="#000000" stroke-width="5" stroke-miterlimit="10" x1="321.166" y1="554.754" x2="305.712" y2="571.522"/>
			<line clip-path="url(#SVGID_166_)" fill="none" stroke="#000000" stroke-width="5" stroke-miterlimit="10" x1="296.05" y1="527.557" x2="280.596" y2="544.327"/>
			<line clip-path="url(#SVGID_164_)" fill="none" stroke="#000000" stroke-width="5" stroke-miterlimit="10" x1="264.324" y1="503.162" x2="288.324" y2="503.162"/>
			<path clip-path="url(#SVGID_162_)" fill="none" stroke="#000000" stroke-width="5" stroke-miterlimit="10" d="M400.501,431.361"/>
			<path clip-path="url(#SVGID_162_)" fill="none" stroke="#000000" stroke-width="5" stroke-miterlimit="10" d="M385.047,448.129"/>
			<path clip-path="url(#SVGID_160_)" fill="none" stroke="#000000" stroke-width="5" stroke-miterlimit="10" d="M428.017,457.275"/>
			<path clip-path="url(#SVGID_160_)" fill="none" stroke="#000000" stroke-width="5" stroke-miterlimit="10" d="M412.564,474.043"/>
			<path clip-path="url(#SVGID_158_)" fill="none" stroke="#000000" stroke-width="5" stroke-miterlimit="10" d="M420.291,503.162"/>
			<path clip-path="url(#SVGID_158_)" fill="none" stroke="#000000" stroke-width="5" stroke-miterlimit="10" d="M444.291,503.162"/>
			<line fill="none" stroke="#000000" stroke-width="5" stroke-miterlimit="10" x1="384.109" y1="448.886" x2="399.563" y2="432.118"/>
			<line clip-path="url(#SVGID_134_)" fill="none" stroke="#000000" stroke-width="5" stroke-miterlimit="10" x1="411.625" y1="474.8" x2="427.08" y2="458.032"/>
			<line clip-path="url(#SVGID_130_)" fill="none" stroke="#000000" stroke-width="5" stroke-miterlimit="10" x1="443.352" y1="503.918" x2="419.352" y2="503.918"/>
	</g>
</g>


</svg>