<?xml version="1.0" encoding="utf-8"?>
<!-- Generator: Adobe Illustrator 15.0.0, SVG Export Plug-In . SVG Version: 6.00 Build 0)  -->
<!DOCTYPE svg PUBLIC "-//W3C//DTD SVG 1.1//EN" "http://www.w3.org/Graphics/SVG/1.1/DTD/svg11.dtd">
<svg version="1.1" id="Layer_1" xmlns="http://www.w3.org/2000/svg" xmlns:xlink="http://www.w3.org/1999/xlink" x="0px" y="0px"
	 width="1118.67px" height="767.917px" viewBox="-81.333 20.417 1118.67 767.917"
	 enable-background="new -81.333 20.417 1118.67 767.917" xml:space="preserve">

	<!--  kable  -->
																														
																										
																										
																									<path id="kabel2" clip-path="url(#SVGID_136_)" fill="#3658A5" d="M242.02,289.168
																											c-16.026-45.939-31.923-123.037-11.498-171.491c22.334-52.984,79.973-69.247,133.361-60.063
																											c45.393,7.808,61.62,40.013,66.09,82.104c5.983,56.355,9.712,113.273,17.798,169.203
																											c-41.723,11.531-32.411-44.172-37.759-72.25c-6.836-35.897-0.625-90.464-28.494-119.156
																											c-19.639-20.218-92.479-16.379-108.989,8.11c-9.799,14.534-3.699,40.431-4.509,57.544
																											c-0.995,21.043-6.815,41.781-8.104,63.242c-0.979,16.338,12.146,56.838-15.594,48.455
																											c-0.438-2.527-0.444-5.086-0.303-7.697"/>
											</svg>