<?xml version="1.0" encoding="utf-8"?>
<!-- Generator: Adobe Illustrator 15.0.0, SVG Export Plug-In . SVG Version: 6.00 Build 0)  -->
<!DOCTYPE svg PUBLIC "-//W3C//DTD SVG 1.1//EN" "http://www.w3.org/Graphics/SVG/1.1/DTD/svg11.dtd">
<svg version="1.1" id="Layer_1" xmlns="http://www.w3.org/2000/svg" xmlns:xlink="http://www.w3.org/1999/xlink" x="0px" y="0px"
	 width="1118.67px" height="767.917px" viewBox="-81.333 20.417 1118.67 767.917"
	 enable-background="new -81.333 20.417 1118.67 767.917" xml:space="preserve">

	<!--  kable  -->
																														
																										
																										
																										<path id="kabel1" clip-path="url(#SVGID_136_)" fill="#FFEC00" d="M126.056,300.443
																											c-22.864,0-24.538,2.188-28.778-20.207c-3.172-16.759-7.736-33.22-11.122-49.933
																											c-6.754-33.339-9.571-68.394,8.183-99.004c23.273-40.124,80.042-42.136,119.872-27.256
																											c45.397,16.959,53.81,72.556,63.401,113.874c6.426,27.674,20.082,68.602,12.447,96.416
																											c-32.071-9.414-32.285-50.727-36.396-77.617c-4.206-27.515-17.926-60.972-31.613-87.023
																											c-20.794-39.581-38.473-44.987-82.52-10.454c-43.447,34.063-11.875,115.908-11.875,161.205"/>
																										
																										
																										<path id="kabel2" clip-path="url(#SVGID_136_)" fill="#3658A5" d="M242.02,289.168
																											c-16.026-45.939-31.923-123.037-11.498-171.491c22.334-52.984,79.973-69.247,133.361-60.063
																											c45.393,7.808,61.62,40.013,66.09,82.104c5.983,56.355,9.712,113.273,17.798,169.203
																											c-41.723,11.531-32.411-44.172-37.759-72.25c-6.836-35.897-0.625-90.464-28.494-119.156
																											c-19.639-20.218-92.479-16.379-108.989,8.11c-9.799,14.534-3.699,40.431-4.509,57.544
																											c-0.995,21.043-6.815,41.781-8.104,63.242c-0.979,16.338,12.146,56.838-15.594,48.455
																											c-0.438-2.527-0.444-5.086-0.303-7.697"/>
																									

																										<path id="kabel3" clip-path="url(#SVGID_136_)" fill="#83BE60" d="M551.873,314.104
																											c1.189-29.959-6.021-61.779-10.258-91.144c-4.064-28.19-7.543-79.741-48-69.095
																											c-44.602,11.735-43.222,74.058-44.163,110.205c-0.522,20.024,7.295,49.569-19.572,47.28
																											c-33.513-2.854-22.31-49.329-22.31-73.006c0-65.597,8.491-104.982,77.65-125.971
																											c30.105-9.137,64.719-14.307,82.38,15.918c13.269,22.702,16.011,54.863,23.619,79.954
																											c5.281,17.414,7.754,34.076,8.342,52.181c0.429,13.183,3.738,33.336-3.825,45.164
																											C585.318,321.88,569.74,315.132,551.873,314.104z"/>


																										<path id="kabel4" clip-path="url(#SVGID_136_)" fill="#E01314" d="M572.39,289.311
																											c-6.901-17.463-2.725-46.41-2.594-65.032c0.175-24.999,5.021-49.026,16.543-71.886
																											c18.513-36.728,97.916-64.835,132.624-35.092c41.611,35.66,46.813,81.104,57.336,129.879
																											c2.612,12.111,6.021,25.388,6.723,37.509c0.612,10.602-1.854,21.715,2.472,31.534
																											c-7.226,1.56-38.07,0.078-41.625-4.213c-5.672-6.844,0.79-39.012-0.166-48.477
																											c-1.761-17.439-8.029-37.869-13.979-54.648c-6.588-18.579-16.983-41.917-31.67-55.14
																											c-22.601-20.349-68.5-13.367-81.78,13.5c-14.855,30.056-19.969,68.869-17.949,101.933
																											c0.62,10.166,9.841,30.83,5.648,39.535c-5.755,11.943-28.974,7.922-39.378,3.184
																											c2.761-7.321,8.867-17.077,7.795-24.985"/>


																											
	<!-- kable rozcięte -->
																													
																													<!--
																										<path clip-path="url(#SVGID_136_)" fill="#FFEC00" d="M81.997,177.291
																											c-3.595-9.748-1.741-19.972-7.278-30.104c-5.281-9.664-12.424-15.455-20.396-21.614
																											c5.875-6.909,13.586-10.203,20.477-15.932c4.69,15.426,20.145,22.011,29.249,31.792
																											c12.524,13.454,17.948,23.613,17.948,42.882c0,19.362-5.745,37.808-2,57.199
																											c2.114,10.947,6.541,21.417,8.246,32.556c1.201,7.845-0.248,15.867-0.397,24.07
																											c-6.554-0.712-12.344,6.756-18.872,4.172c-3.894-1.541-6.895-11.432-9.225-15.772
																											c-6.14-11.441-8.948-22.952-9.756-36.247c-0.763-12.544,0.432-26.329-0.975-39.027
																											c-1.432-12.937-5.688-25.13-7.022-37.973"/>
																										<path clip-path="url(#SVGID_136_)" fill="#FFEC00" d="M267.997,298.291
																											c-10.216-15.726-11.226-37.229-14.973-55.007c-4.08-19.355-10.381-37.983-13.027-57.744
																											c-2.622-19.577-6.794-37.302-21.249-51.055c-14.333-13.639-34.742-17.956-48.728-32.222
																											c-6.917-7.054-9.205-6.621-1.22-15.239c3.816-4.119,7.771-8.004,13.021-9.333
																											c3.61,6.282,5.052,14.709,10.872,19.625c6.576,5.554,17.413,8.377,25.106,11.972
																											c9.156,4.277,16.779,7.059,22.475,16.236c5.433,8.755,9.988,18.686,14.719,27.789
																											c8.997,17.317,16.146,37.527,21.028,57.029c4.737,18.93,12.217,36.731,16.197,56.124
																											c1.914,9.324,10.172,47.237-6.219,45.82c-9.683-0.837-21.779-21.274-26.004-29.996"/>
																										
																										
																										<path clip-path="url(#SVGID_136_)" fill="#3658A5" d="M239.997,292.291
																											c-6.279-16.019-8.672-35.062-12.945-52.028c-5.773-22.926-5.228-40.533-2.833-63.721
																											c2.239-21.679,0.702-43.526,9.829-64.025c8.83-19.832,24.872-27.163,41.403-39.676
																											c9.247-6.999,15.521-15.938,23.572-23.688c7.386,12.564,11.391,36.918,8.921,52.143
																											c-1.064,6.566,0.451,4.405-5.199,8.722c-3.742,2.859-7.579,3.817-11.801,6.053
																											c-7.293,3.86-14.072,6.513-18.974,13.424c-11.334,15.981-7.974,39.304-7.974,58.072
																											c0,22.466-8.75,38.735-12.246,60.559c-1.868,11.657,4.365,22.15,5.27,34.19
																											c0.973,12.963-3.409,14.835-15.875,13.824c-0.086-1.708-1.078-3.229-1.147-4.849"/>
																										<path clip-path="url(#SVGID_136_)" fill="#3658A5" d="M406.997,293.291
																											c3.838-17.661-3.761-34.234,0-52.777c4.34-21.399-1.898-38.631-5.028-59.468
																											c-1.436-9.557-0.254-20.095-2.193-29.703c-2.278-11.284-7.941-22.021-10.606-33.301
																											c-4.017-16.994-7.868-34.196-11.196-51.52c-1.942-10.113-5.829-24.563-3.026-35.125
																											c0.599-2.258,0.596-4.727,1.226-6.999c10.203,0.796,21.396-3.614,31.817-3.98
																											c0.416,9.53-2.379,19.08-1.014,28.675c1.583,11.13,6.785,21.689,9.025,32.747
																											c4.748,23.436,13.382,46.215,18.774,69.427c6.578,28.315,2.455,59.164,6.171,87.781
																											c2.789,21.473,9.862,48.042,4.9,69.071c-14.535,9.439-30.186-8.618-37.85-17.828"/>
																										
																										
																										<path clip-path="url(#SVGID_136_)" fill="#83BE60" d="M410.997,300.291
																											c-7.479-7.666-8.059-35.658-9.052-46.726c-1.666-18.574,5.255-37.758,7.052-56.354
																											c1.965-20.34,8.689-34.5,19.854-51.438c12.188-18.488,20.541-38.648,30.119-59.461
																											c5.424-11.783,5.336-21.02,18.506-14.749c8.463,4.028,19.321,11.999,16.518,21.698
																											c-2.868,9.92-13.317,15.628-16.219,26.976c-2.865,11.206-3.283,22.688-6.503,33.851
																											c-5.772,20.008-14.804,40.543-19.101,61.225c-4.533,21.816-2.17,46.313-2.174,68.948
																											c-0.002,12.888-2.843,27.788-19.055,26.052c-11.261-1.206-21.657-11.767-22.945-23.022"/>
																										<path clip-path="url(#SVGID_136_)" fill="#83BE60" d="M552.997,313.291
																											c-13.366-15.849-3.561-42.512-6.223-62c-2.406-17.617-7.564-35.819-11-52.754
																											c-3.458-17.044-5.932-36.012-6.777-54c-1.01-21.479-4.713-33.719,7.722-52.497
																											c2.936-4.431,6.239-8.466,8.5-13.47c3.561,7.162,9.555,14.528,15.082,20.468
																											c3.317,3.563,7.729,5.836,9.863,10.275c3.069,6.384,0.923,3.56,0.059,10.226
																											c-2.378,18.326,0.745,32.771,7.021,50.454c9.489,26.738,17.448,54.165,20.703,82.427
																											c1.479,12.853,3.371,24.861,4.052,37.898c0.62,11.877,3.911,16.945-8.465,20.726
																											c-11.541,3.525-31.396,7.457-43.338,3.123c-1.692-3.802-2.567-7.582-2.197-11.877"/>
																										
																										
																										<path clip-path="url(#SVGID_136_)" fill="#E01314" d="M744.997,311.291
																											c-8.262-12.61-2.705-36.021-2-50.974c0.804-17.057-2.206-28.057-9.749-43.056
																											c-7.471-14.854-11.935-31.819-19.721-46.024c-7.71-14.064-19.772-18.829-34.356-25.121
																											c-1.141-14.631-9.404-41.913,14.906-33.854c23.547,7.806,42.114,24.277,55.214,45.247
																											c9.18,14.695,16.123,32.254,21.754,48.582c5.085,14.743,3.138,30.385,6.123,45.422
																											c2.181,10.985,5.351,21.44,5.825,33.074c0.253,6.161,4.167,26.229,1.128,30.774
																											c-0.166,0.253-0.332,0.505-0.498,0.758c-15.681,7.2-28.828-8.983-43.626-10.829"/>
																										<path clip-path="url(#SVGID_136_)" fill="#E01314" d="M571.997,296.291
																											c-1.144-9.496,1.342-18.368-0.027-27.977c-1.225-8.605-2.262-17.835-2.97-26.297
																											c-1.717-20.525,4.247-37.45,8.997-56.655c5.047-20.407,10.013-40.674,17.023-60.625
																											c6.983-19.879,13.896-44.378,36.867-50.415c3.344,8.628,10.893,20.407,8.859,28.741
																											c-1.544,6.332-7.534,13.026-10,19.759c-6.927,18.904-14.148,37.673-22.021,57.189
																											c-8.604,21.33-8.729,40.477-8.729,64.263c0,14.313,2.439,26.118,5.223,39.713
																											c1.588,7.755,3.893,18.746-0.476,26.054c-5.153,8.624-19.884,7.681-28.775,4.301
																											c-17.53-6.665-3.271-19.421-3.972-32.052"/>
																											 -->
																												
																												
																												<!-- kable rozcięte END -->
																											
																											
																											<!--  kable  END    -->
																											
																			</svg>								
