<?xml version="1.0" encoding="utf-8"?>
<!-- Generator: Adobe Illustrator 15.0.0, SVG Export Plug-In . SVG Version: 6.00 Build 0)  -->
<!DOCTYPE svg PUBLIC "-//W3C//DTD SVG 1.1//EN" "http://www.w3.org/Graphics/SVG/1.1/DTD/svg11.dtd">
<svg version="1.1" id="Layer_1" xmlns="http://www.w3.org/2000/svg" xmlns:xlink="http://www.w3.org/1999/xlink" x="0px" y="0px"
	 width="1728px" height="1296px" viewBox="0 0 1728 1296" enable-background="new 0 0 1728 1296" xml:space="preserve">
	 
	 
	 
<!-- kabele - tagi do nich na samym dole pliku -->		 
	 
	 
	 
<g>
	<defs>
		<rect id="SVGID_1_" x="42" y="60.697" width="1728" height="1296"/>
	</defs>
	<clipPath id="SVGID_2_">
		<use xlink:href="#SVGID_1_"  overflow="visible"/>
	</clipPath>
	<g clip-path="url(#SVGID_2_)">
		<defs>
			<path id="SVGID_3_" d="M346.189,694.561c-24.395,0.002-44.172,19.736-60.579,42.78v39.041
				c16.407,29.12,39.012,51.674,66.894,51.671l778.684-0.069c28.589,0.041,51.783-23.071,70.716-52.262v-31.482
				c-18.933-27.149-41.507-49.707-69.384-49.748L346.189,694.561z"/>
		</defs>
		<clipPath id="SVGID_4_">
			<use xlink:href="#SVGID_3_"  overflow="visible"/>
		</clipPath>
		
			<linearGradient id="SVGID_5_" gradientUnits="userSpaceOnUse" x1="0.3555" y1="1296.2402" x2="1.3555" y2="1296.2402" gradientTransform="matrix(2 172 172 -2 -222212.375 3103.625)">
			<stop  offset="0" style="stop-color:#FFFFFF"/>
			<stop  offset="0.9513" style="stop-color:#D81E1A"/>
			<stop  offset="1" style="stop-color:#D81E1A"/>
		</linearGradient>
		<polygon clip-path="url(#SVGID_4_)" fill="url(#SVGID_5_)" points="1201.779,683.838 1203.456,828.037 285.734,838.708 
			284.057,694.51 		"/>
	</g>
	<g clip-path="url(#SVGID_2_)">
		<defs>
			<rect id="SVGID_6_" x="42" y="60.697" width="1728" height="1296"/>
		</defs>
		<clipPath id="SVGID_7_">
			<use xlink:href="#SVGID_6_"  overflow="visible"/>
		</clipPath>
		<path clip-path="url(#SVGID_7_)" fill="none" stroke="#000000" stroke-miterlimit="10" d="M1131.188,827.983l-778.685,0.069
			c-27.882,0.003-50.486-22.551-66.894-51.67v-39.041c16.408-23.045,36.184-42.779,60.58-42.781l786.33-0.069
			c27.876,0.04,50.452,22.6,69.384,49.748v31.481C1182.972,804.912,1159.775,828.024,1131.188,827.983z"/>
	</g>
	<g clip-path="url(#SVGID_2_)">
		<defs>
			<path id="SVGID_8_" d="M335.089,1024.355c-24.396,0.003-44.172,19.738-60.579,42.782v39.041
				c16.407,29.119,39.011,51.673,66.893,51.67l778.685-0.069c28.587,0.041,51.783-23.072,70.714-52.263v-31.481
				c-18.931-27.148-41.507-49.708-69.383-49.748L335.089,1024.355z"/>
		</defs>
		<clipPath id="SVGID_9_">
			<use xlink:href="#SVGID_8_"  overflow="visible"/>
		</clipPath>
		
			<linearGradient id="SVGID_10_" gradientUnits="userSpaceOnUse" x1="-0.2808" y1="1295.8047" x2="0.7192" y2="1295.8047" gradientTransform="matrix(0 -216 -216 0 280626.625 1229.375)">
			<stop  offset="0" style="stop-color:#FFFFFF"/>
			<stop  offset="0.9513" style="stop-color:#D81E1A"/>
			<stop  offset="1" style="stop-color:#D81E1A"/>
		</linearGradient>
		<rect x="274.51" y="1024.287" clip-path="url(#SVGID_9_)" fill="url(#SVGID_10_)" width="916.292" height="133.564"/>
	</g>
	<g clip-path="url(#SVGID_2_)">
		<defs>
			<rect id="SVGID_11_" x="42" y="60.697" width="1728" height="1296"/>
		</defs>
		<clipPath id="SVGID_12_">
			<use xlink:href="#SVGID_11_"  overflow="visible"/>
		</clipPath>
		<path clip-path="url(#SVGID_12_)" fill="none" stroke="#000000" stroke-miterlimit="10" d="M1120.088,1157.779l-778.685,0.069
			c-27.882,0.003-50.486-22.551-66.894-51.67v-39.041c16.408-23.046,36.184-42.78,60.58-42.782l786.33-0.068
			c27.876,0.04,50.452,22.6,69.384,49.748v31.481C1171.871,1134.708,1148.675,1157.82,1120.088,1157.779z"/>
	</g>
	<g clip-path="url(#SVGID_2_)">
		<defs>
			<path id="SVGID_13_" d="M320.813,747.572c-25.954,0.002-46.992,20.996-64.446,45.513v41.533
				c17.454,30.979,41.501,54.971,71.163,54.967l828.389-0.072c30.411,0.044,55.087-24.544,75.228-55.6v-33.491
				c-20.141-28.881-44.157-52.88-73.813-52.923L320.813,747.572z"/>
		</defs>
		<clipPath id="SVGID_14_">
			<use xlink:href="#SVGID_13_"  overflow="visible"/>
		</clipPath>
		
			<linearGradient id="SVGID_15_" gradientUnits="userSpaceOnUse" x1="1.48" y1="1297.0244" x2="2.4801" y2="1297.0244" gradientTransform="matrix(0 41 41 0 -52434.25 661.3438)">
			<stop  offset="0" style="stop-color:#FFFFFF"/>
			<stop  offset="0.9513" style="stop-color:#D81E1A"/>
			<stop  offset="1" style="stop-color:#D81E1A"/>
		</linearGradient>
		<rect x="256.367" y="747.499" clip-path="url(#SVGID_14_)" fill="url(#SVGID_15_)" width="974.779" height="142.09"/>
	</g>
	<g clip-path="url(#SVGID_2_)">
		<defs>
			<rect id="SVGID_16_" x="42" y="60.697" width="1728" height="1296"/>
		</defs>
		<clipPath id="SVGID_17_">
			<use xlink:href="#SVGID_16_"  overflow="visible"/>
		</clipPath>
		<path clip-path="url(#SVGID_17_)" fill="none" stroke="#000000" stroke-miterlimit="10" d="M1155.919,889.512l-828.389,0.074
			c-29.661,0.003-53.709-23.99-71.163-54.968v-41.533c17.454-24.517,38.492-45.51,64.446-45.512l836.521-0.074
			c29.655,0.043,53.673,24.043,73.813,52.924v33.49C1211.007,864.968,1186.33,889.556,1155.919,889.512z"/>
	</g>
	<g clip-path="url(#SVGID_2_)">
		<defs>
			<path id="SVGID_18_" d="M320.813,924.954c-25.954,0.002-46.992,20.996-64.446,45.513V1012
				c17.454,30.979,41.501,54.972,71.163,54.967l828.389-0.073c30.411,0.045,55.087-24.544,75.228-55.599v-33.49
				c-20.141-28.883-44.157-52.881-73.813-52.924L320.813,924.954z"/>
		</defs>
		<clipPath id="SVGID_19_">
			<use xlink:href="#SVGID_18_"  overflow="visible"/>
		</clipPath>
		
			<linearGradient id="SVGID_20_" gradientUnits="userSpaceOnUse" x1="-0.3447" y1="1295.7617" x2="0.6553" y2="1295.7617" gradientTransform="matrix(0 -176 -176 0 228797.75 1136.25)">
			<stop  offset="0" style="stop-color:#FFFFFF"/>
			<stop  offset="0.9513" style="stop-color:#D81E1A"/>
			<stop  offset="1" style="stop-color:#D81E1A"/>
		</linearGradient>
		<rect x="256.367" y="924.881" clip-path="url(#SVGID_19_)" fill="url(#SVGID_20_)" width="974.779" height="142.091"/>
	</g>
	<g clip-path="url(#SVGID_2_)">
		<defs>
			<rect id="SVGID_21_" x="42" y="60.697" width="1728" height="1296"/>
		</defs>
		<clipPath id="SVGID_22_">
			<use xlink:href="#SVGID_21_"  overflow="visible"/>
		</clipPath>
		<path clip-path="url(#SVGID_22_)" fill="none" stroke="#000000" stroke-miterlimit="10" d="M1155.919,1066.894l-828.389,0.074
			c-29.661,0.003-53.709-23.99-71.163-54.968v-41.533c17.454-24.517,38.492-45.51,64.446-45.513l836.521-0.073
			c29.655,0.043,53.673,24.042,73.813,52.924v33.49C1211.007,1042.35,1186.33,1066.938,1155.919,1066.894z"/>
	</g>
	<g clip-path="url(#SVGID_2_)">
		<defs>
			<path id="SVGID_23_" d="M298.996,843.121c-27.614,0.002-49.998,22.387-68.569,48.529v44.286
				c18.571,33.03,44.156,58.614,75.716,58.612l881.385-0.079c32.357,0.046,58.612-26.172,80.042-59.283v-35.712
				c-21.43-30.796-46.983-56.386-78.535-56.432L298.996,843.121z"/>
		</defs>
		<clipPath id="SVGID_24_">
			<use xlink:href="#SVGID_23_"  overflow="visible"/>
		</clipPath>
		
			<linearGradient id="SVGID_25_" gradientUnits="userSpaceOnUse" x1="0.3677" y1="1296.2402" x2="1.3672" y2="1296.2402" gradientTransform="matrix(4 168 168 -4 -217025.625 5844.502)">
			<stop  offset="0" style="stop-color:#FFFFFF"/>
			<stop  offset="0.9513" style="stop-color:#D81E1A"/>
			<stop  offset="1" style="stop-color:#D81E1A"/>
		</linearGradient>
		<polygon clip-path="url(#SVGID_24_)" fill="url(#SVGID_25_)" points="1266.982,818.363 1271.175,994.466 231.015,1019.231 
			226.822,843.129 		"/>
	</g>
	<g clip-path="url(#SVGID_2_)">
		<defs>
			<rect id="SVGID_26_" x="42" y="60.697" width="1728" height="1296"/>
		</defs>
		<clipPath id="SVGID_27_">
			<use xlink:href="#SVGID_26_"  overflow="visible"/>
		</clipPath>
		
			<linearGradient id="SVGID_28_" gradientUnits="userSpaceOnUse" x1="0.0405" y1="1295.9414" x2="1.0396" y2="1295.9414" gradientTransform="matrix(1038.14 0 0 -1038.14 188.0273 1346287.75)">
			<stop  offset="0" style="stop-color:#FFFFFF"/>
			<stop  offset="1" style="stop-color:#231F20"/>
		</linearGradient>
		<path clip-path="url(#SVGID_27_)" fill="url(#SVGID_28_)" d="M1187.528,994.47L1187.528,994.47l-881.385,0.079
			c-0.002,0-0.004,0-0.006,0c-31.558,0-57.141-25.583-75.711-58.612V891.65c18.572-26.142,40.956-48.527,68.569-48.529l890.04-0.078
			c31.552,0.046,57.105,25.636,78.534,56.432v35.711c-21.41,33.084-47.639,59.284-79.956,59.284
			C1187.585,994.47,1187.557,994.47,1187.528,994.47L1187.528,994.47L1187.528,994.47c0.028,0,0.057,0,0.085,0
			c32.318,0,58.546-26.2,79.956-59.284v-35.711c-21.429-30.796-46.982-56.386-78.534-56.432l-890.04,0.078
			c-27.613,0.002-49.997,22.388-68.569,48.529v44.286c18.571,33.029,44.154,58.612,75.711,58.612c0.002,0,0.004,0,0.006,0
			L1187.528,994.47L1187.528,994.47z"/>
		
			<line clip-path="url(#SVGID_27_)" fill="none" stroke="#000000" stroke-miterlimit="10" x1="404.757" y1="1157.849" x2="477.614" y2="1157.837"/>
		
			<line clip-path="url(#SVGID_27_)" fill="none" stroke="#000000" stroke-miterlimit="10" x1="474.641" y1="1157.849" x2="404.757" y2="1157.849"/>
		<path clip-path="url(#SVGID_27_)" d="M472.757,834.24v151l-0.143,0.209l1.717,4.943c0.235,0.677,0.419,1.369,0.552,2.072
			l31.229,165.321l0.145-0.046h-70l-0.03,0.046l-31.428-166.378l-0.042-0.168v-151l0.042-0.331l38.571-145.418l-0.113,0.249h66
			l0.426-0.249l-38.571,145.418"/>
		<path clip-path="url(#SVGID_27_)" fill="none" stroke="#000000" stroke-width="3" stroke-miterlimit="10" d="M472.757,834.24v151
			l-0.143,0.209l1.717,4.943c0.235,0.677,0.419,1.369,0.552,2.072l31.229,165.321l0.145-0.046h-70l-0.03,0.046l-31.428-166.378
			l-0.042-0.168v-151l0.042-0.331l38.571-145.418l-0.113,0.249h66l0.426-0.249l-38.571,145.418"/>
		<path clip-path="url(#SVGID_27_)" fill="#1E1203" d="M673.236,839.447c-6.871-0.835-13.638-2.001-20.274-3.488
			c8.015-23.448,11.104-45.812,11.176-68.051c6.666,0.001,13.333,0.001,19.999,0.002
			C684.09,791.485,680.873,815.138,673.236,839.447"/>
		<path clip-path="url(#SVGID_27_)" fill="none" stroke="#000000" stroke-width="10" stroke-miterlimit="10" d="M673.236,839.447
			c-6.871-0.835-13.638-2.001-20.274-3.488c8.015-23.448,11.104-45.812,11.176-68.051c6.666,0.001,13.333,0.001,19.999,0.002
			C684.09,791.485,680.873,815.138,673.236,839.447z"/>
		<path clip-path="url(#SVGID_27_)" fill="#1E1203" d="M683.979,776.688c-6.668-0.12-13.335-0.285-19.999-0.494
			c0.84-25.034-2.036-50.004-11.018-76.39c6.637-1.488,13.404-2.653,20.274-3.489C681.804,723.665,684.863,750.158,683.979,776.688"
			/>
		<path clip-path="url(#SVGID_27_)" fill="none" stroke="#000000" stroke-width="10" stroke-miterlimit="10" d="M683.979,776.688
			c-6.668-0.12-13.335-0.285-19.999-0.494c0.84-25.034-2.036-50.004-11.018-76.39c6.637-1.488,13.404-2.653,20.274-3.489
			C681.804,723.665,684.863,750.158,683.979,776.688z"/>
		<path clip-path="url(#SVGID_27_)" fill="#1E1203" d="M664.126,1154.108c-6.861-0.873-13.623-2.061-20.258-3.557
			c8.006-23.274,11.336-45.539,11.792-67.609c6.666,0.099,13.332,0.179,19.999,0.238
			C675.221,1106.533,671.778,1130.006,664.126,1154.108"/>
		<path clip-path="url(#SVGID_27_)" fill="none" stroke="#000000" stroke-width="10" stroke-miterlimit="10" d="M664.126,1154.108
			c-6.861-0.873-13.623-2.061-20.258-3.557c8.006-23.274,11.336-45.539,11.792-67.609c6.666,0.099,13.332,0.179,19.999,0.238
			C675.221,1106.533,671.778,1130.006,664.126,1154.108z"/>
		<path clip-path="url(#SVGID_27_)" fill="#1E1203" d="M675.66,1083.181c-6.667-0.06-13.334-0.139-20-0.238
			c0.354-24.819-2.814-49.69-11.792-75.882c6.637-1.495,13.397-2.684,20.259-3.556
			C672.715,1030.622,676.048,1056.918,675.66,1083.181"/>
		<path clip-path="url(#SVGID_27_)" fill="none" stroke="#000000" stroke-width="10" stroke-miterlimit="10" d="M675.66,1083.181
			c-6.667-0.06-13.334-0.139-20-0.238c0.354-24.819-2.814-49.69-11.792-75.882c6.637-1.495,13.397-2.684,20.259-3.556
			C672.715,1030.622,676.048,1056.918,675.66,1083.181z"/>
		<path clip-path="url(#SVGID_27_)" fill="#1E1203" d="M655.155,861.278c-6.844,1.07-13.708,1.714-20.567,1.862
			c0.285-28.275,0.303-52.966,0.313-77.496c6.667,0.004,13.334-0.022,20.001-0.074C654.917,809.701,654.963,833.971,655.155,861.278
			"/>
		<path clip-path="url(#SVGID_27_)" fill="none" stroke="#000000" stroke-width="10" stroke-miterlimit="10" d="M655.155,861.278
			c-6.844,1.07-13.708,1.714-20.567,1.862c0.285-28.275,0.303-52.966,0.313-77.496c6.667,0.004,13.334-0.022,20.001-0.074
			C654.917,809.701,654.963,833.971,655.155,861.278z"/>
		<path clip-path="url(#SVGID_27_)" fill="#1E1203" d="M654.902,785.57c-6.667,0.052-13.334,0.078-20.001,0.074
			c-0.004-27.594,0.004-54.876-0.313-86.676c6.859,0.149,13.723,0.793,20.566,1.863C654.941,731.543,654.902,758.426,654.902,785.57
			"/>
		<path clip-path="url(#SVGID_27_)" fill="none" stroke="#000000" stroke-width="10" stroke-miterlimit="10" d="M654.902,785.57
			c-6.667,0.052-13.334,0.078-20.001,0.074c-0.004-27.594,0.004-54.876-0.313-86.676c6.859,0.149,13.723,0.793,20.566,1.863
			C654.941,731.543,654.902,758.426,654.902,785.57z"/>
		<path clip-path="url(#SVGID_27_)" fill="#1E1203" d="M630.696,856.06c-6.843,1.087-13.706,1.74-20.566,1.886
			c0.274-28.415,0.28-53.146,0.289-77.813c6.666,0.002,13.334-0.011,20-0.039C630.431,804.341,630.482,828.646,630.696,856.06"/>
		<path clip-path="url(#SVGID_27_)" fill="none" stroke="#000000" stroke-width="10" stroke-miterlimit="10" d="M630.696,856.06
			c-6.843,1.087-13.706,1.74-20.566,1.886c0.274-28.415,0.28-53.146,0.289-77.813c6.666,0.002,13.334-0.011,20-0.039
			C630.431,804.341,630.482,828.646,630.696,856.06z"/>
		<path clip-path="url(#SVGID_27_)" fill="#1E1203" d="M630.42,784.574c-6.667,0.081-13.335,0.121-20.003,0.116
			c-0.004-27.776,0.017-55.092-0.288-87.048c6.86,0.146,13.723,0.798,20.566,1.886C630.458,730.358,630.415,757.272,630.42,784.574"
			/>
		<path clip-path="url(#SVGID_27_)" fill="none" stroke="#000000" stroke-width="10" stroke-miterlimit="10" d="M630.42,784.574
			c-6.667,0.081-13.335,0.121-20.003,0.116c-0.004-27.776,0.017-55.092-0.288-87.048c6.86,0.146,13.723,0.798,20.566,1.886
			C630.458,730.358,630.415,757.272,630.42,784.574z"/>
		<path clip-path="url(#SVGID_27_)" fill="#1E1203" d="M621.823,1151.777c-6.84,1.137-13.703,1.816-20.563,1.955
			c0.188-22.273,0.209-42.157,0.22-61.636c6.67,0.011,13.342-0.081,20.012-0.257C621.526,1110.93,621.602,1130.36,621.823,1151.777"
			/>
		<path clip-path="url(#SVGID_27_)" fill="none" stroke="#000000" stroke-width="10" stroke-miterlimit="10" d="M621.823,1151.777
			c-6.84,1.137-13.703,1.816-20.563,1.955c0.188-22.273,0.209-42.157,0.22-61.636c6.67,0.011,13.342-0.081,20.012-0.257
			C621.526,1110.93,621.602,1130.36,621.823,1151.777z"/>
		<path clip-path="url(#SVGID_27_)" fill="#1E1203" d="M621.493,1091.839c-6.671,0.176-13.342,0.269-20.013,0.258
			c-0.004-28.376,0.045-55.793-0.219-88.217c6.86,0.139,13.723,0.816,20.563,1.955
			C621.514,1037.018,621.463,1064.029,621.493,1091.839"/>
		<path clip-path="url(#SVGID_27_)" fill="none" stroke="#000000" stroke-width="10" stroke-miterlimit="10" d="M621.493,1091.839
			c-6.671,0.176-13.342,0.269-20.013,0.258c-0.004-28.376,0.045-55.793-0.219-88.217c6.86,0.139,13.723,0.816,20.563,1.955
			C621.514,1037.018,621.463,1064.029,621.493,1091.839z"/>
		<path clip-path="url(#SVGID_27_)" fill="#1E1203" d="M648.576,1151.512c-6.838,1.158-13.701,1.848-20.561,1.983
			c0.223-29.013,0.19-53.926,0.196-79.244c6.667-0.005,13.336,0.039,20.003,0.127
			C648.204,1099.18,648.269,1123.648,648.576,1151.512"/>
		<path clip-path="url(#SVGID_27_)" fill="none" stroke="#000000" stroke-width="10" stroke-miterlimit="10" d="M648.576,1151.512
			c-6.838,1.158-13.701,1.848-20.561,1.983c0.223-29.013,0.19-53.926,0.196-79.244c6.667-0.005,13.336,0.039,20.003,0.127
			C648.204,1099.18,648.269,1123.648,648.576,1151.512z"/>
		<path clip-path="url(#SVGID_27_)" fill="#1E1203" d="M648.227,1095.972c-6.673,0.222-13.347,0.336-20.019,0.323
			c-0.006-28.655,0.052-56.12-0.194-88.748c6.86,0.136,13.724,0.826,20.561,1.983
			C648.234,1040.868,648.183,1067.928,648.227,1095.972"/>
		<path clip-path="url(#SVGID_27_)" fill="none" stroke="#000000" stroke-width="10" stroke-miterlimit="10" d="M648.227,1095.972
			c-6.673,0.222-13.347,0.336-20.019,0.323c-0.006-28.655,0.052-56.12-0.194-88.748c6.86,0.136,13.724,0.826,20.561,1.983
			C648.234,1040.868,648.183,1067.928,648.227,1095.972z"/>
		<path clip-path="url(#SVGID_27_)" fill="#1E1203" d="M604.414,754.546c-6.666-0.113-13.332-0.228-19.997-0.341
			c0.342-20.094,3.423-40.153,9.245-59.609c6.387,1.91,12.774,3.822,19.161,5.732C607.528,718.024,604.725,736.27,604.414,754.546"
			/>
		<path clip-path="url(#SVGID_27_)" fill="none" stroke="#000000" stroke-width="9" stroke-miterlimit="10" d="M604.414,754.546
			c-6.666-0.113-13.332-0.228-19.997-0.341c0.342-20.094,3.423-40.153,9.245-59.609c6.387,1.91,12.774,3.822,19.161,5.732
			C607.528,718.024,604.725,736.27,604.414,754.546z"/>
		<path clip-path="url(#SVGID_27_)" fill="#1E1203" d="M612.823,815.607c-6.387,1.911-12.774,3.822-19.161,5.733
			c-6.548-21.884-9.63-44.532-9.245-67.136c6.666,0.113,13.331,0.228,19.997,0.341C604.064,775.104,606.867,795.702,612.823,815.607
			"/>
		<path clip-path="url(#SVGID_27_)" fill="none" stroke="#000000" stroke-width="9" stroke-miterlimit="10" d="M612.823,815.607
			c-6.387,1.911-12.774,3.822-19.161,5.733c-6.548-21.884-9.63-44.532-9.245-67.136c6.666,0.113,13.331,0.228,19.997,0.341
			C604.064,775.104,606.867,795.702,612.823,815.607z"/>
		<path clip-path="url(#SVGID_27_)" fill="#1E1203" d="M596.292,1092.033c-6.666-0.065-13.333-0.131-19.999-0.196
			c0.198-20.177,3.189-40.333,8.974-59.881l19.177,5.675C599.189,1055.39,596.472,1073.702,596.292,1092.033"/>
		<path clip-path="url(#SVGID_27_)" fill="none" stroke="#000000" stroke-width="10" stroke-miterlimit="10" d="M596.292,1092.033
			c-6.666-0.065-13.333-0.131-19.999-0.196c0.198-20.177,3.189-40.333,8.974-59.881l19.177,5.675
			C599.189,1055.39,596.472,1073.702,596.292,1092.033z"/>
		<path clip-path="url(#SVGID_27_)" fill="#1E1203" d="M604.444,1150.321l-19.178,5.675c-6.507-21.987-9.479-44.745-8.917-67.437
			c6.665,0.165,13.33,0.331,19.994,0.496C595.833,1109.67,598.533,1130.345,604.444,1150.321"/>
		<path clip-path="url(#SVGID_27_)" fill="none" stroke="#000000" stroke-width="10" stroke-miterlimit="10" d="M604.444,1150.321
			l-19.178,5.675c-6.507-21.987-9.479-44.745-8.917-67.437c6.665,0.165,13.33,0.331,19.994,0.496
			C595.833,1109.67,598.533,1130.345,604.444,1150.321z"/>
		<path clip-path="url(#SVGID_27_)" fill="#13002A" d="M661.142,1078.806h-46.308c-63.937,0-115.768-51.831-115.768-115.768V916.73
			c0-63.938,51.831-115.769,115.768-115.769h46.308c63.937,0,115.768,51.831,115.768,115.769v46.308
			C776.91,1026.975,725.079,1078.806,661.142,1078.806"/>
		<path clip-path="url(#SVGID_27_)" fill="none" stroke="#000000" stroke-miterlimit="10" d="M661.142,1078.806h-46.308
			c-63.937,0-115.768-51.831-115.768-115.768V916.73c0-63.938,51.831-115.769,115.768-115.769h46.308
			c63.937,0,115.768,51.831,115.768,115.769v46.308C776.91,1026.975,725.079,1078.806,661.142,1078.806z"/>
		<path clip-path="url(#SVGID_27_)" fill="#FFFFFF" d="M636.372,1041.384L636.372,1041.384c-56.057,0-101.5-45.442-101.5-101.5
			c0-56.057,45.443-101.5,101.5-101.5s101.5,45.443,101.5,101.5C737.872,995.941,692.429,1041.384,636.372,1041.384"/>
		<path clip-path="url(#SVGID_27_)" fill="none" stroke="#000000" stroke-width="10" stroke-miterlimit="10" d="M636.372,1041.384
			L636.372,1041.384c-56.057,0-101.5-45.442-101.5-101.5c0-56.057,45.443-101.5,101.5-101.5s101.5,45.443,101.5,101.5
			C737.872,995.941,692.429,1041.384,636.372,1041.384z"/>
		<g opacity="0.57" clip-path="url(#SVGID_27_)">
			<g>
				<defs>
					<rect id="SVGID_29_" x="702.355" y="934.128" width="24" height="5"/>
				</defs>
				<clipPath id="SVGID_30_">
					<use xlink:href="#SVGID_29_"  overflow="visible"/>
				</clipPath>
				
					<line clip-path="url(#SVGID_30_)" fill="none" stroke="#000000" stroke-width="5" stroke-miterlimit="10" x1="726.355" y1="936.628" x2="702.355" y2="936.628"/>
			</g>
		</g>
		<g opacity="0.57" clip-path="url(#SVGID_27_)">
			<g>
				<defs>
					<rect id="SVGID_31_" x="692.79" y="889.047" width="19.131" height="20.157"/>
				</defs>
				<clipPath id="SVGID_32_">
					<use xlink:href="#SVGID_31_"  overflow="visible"/>
				</clipPath>
				
					<line clip-path="url(#SVGID_32_)" fill="none" stroke="#000000" stroke-width="5" stroke-miterlimit="10" x1="694.628" y1="907.51" x2="710.083" y2="890.741"/>
			</g>
		</g>
		<g opacity="0.57" clip-path="url(#SVGID_27_)">
			<g>
				<defs>
					<rect id="SVGID_33_" x="665.274" y="863.133" width="19.13" height="20.157"/>
				</defs>
				<clipPath id="SVGID_34_">
					<use xlink:href="#SVGID_33_"  overflow="visible"/>
				</clipPath>
				
					<line clip-path="url(#SVGID_34_)" fill="none" stroke="#000000" stroke-width="5" stroke-miterlimit="10" x1="667.112" y1="881.596" x2="682.566" y2="864.827"/>
			</g>
		</g>
		<g opacity="0.57" clip-path="url(#SVGID_27_)">
			<g>
				<defs>
					<rect id="SVGID_35_" x="546.389" y="934.128" width="23.999" height="5"/>
				</defs>
				<clipPath id="SVGID_36_">
					<use xlink:href="#SVGID_35_"  overflow="visible"/>
				</clipPath>
				
					<line clip-path="url(#SVGID_36_)" fill="none" stroke="#000000" stroke-width="5" stroke-miterlimit="10" x1="546.389" y1="936.628" x2="570.389" y2="936.628"/>
			</g>
		</g>
		<g opacity="0.57" clip-path="url(#SVGID_27_)">
			<g>
				<defs>
					<rect id="SVGID_37_" x="560.823" y="959.329" width="19.131" height="20.157"/>
				</defs>
				<clipPath id="SVGID_38_">
					<use xlink:href="#SVGID_37_"  overflow="visible"/>
				</clipPath>
				
					<line clip-path="url(#SVGID_38_)" fill="none" stroke="#000000" stroke-width="5" stroke-miterlimit="10" x1="578.115" y1="961.023" x2="562.661" y2="977.793"/>
			</g>
		</g>
		<g opacity="0.57" clip-path="url(#SVGID_27_)">
			<g>
				<defs>
					<rect id="SVGID_39_" x="585.939" y="986.526" width="19.13" height="20.157"/>
				</defs>
				<clipPath id="SVGID_40_">
					<use xlink:href="#SVGID_39_"  overflow="visible"/>
				</clipPath>
				
					<line clip-path="url(#SVGID_40_)" fill="none" stroke="#000000" stroke-width="5" stroke-miterlimit="10" x1="603.231" y1="988.221" x2="587.777" y2="1004.989"/>
			</g>
		</g>
		<g opacity="0.57" clip-path="url(#SVGID_27_)">
			<g>
				<defs>
					<rect id="SVGID_41_" x="633.264" y="1002.031" width="5" height="24"/>
				</defs>
				<clipPath id="SVGID_42_">
					<use xlink:href="#SVGID_41_"  overflow="visible"/>
				</clipPath>
				
					<line clip-path="url(#SVGID_42_)" fill="none" stroke="#000000" stroke-width="5" stroke-miterlimit="10" x1="635.764" y1="1026.031" x2="635.764" y2="1002.031"/>
			</g>
		</g>
		<g opacity="0.57" clip-path="url(#SVGID_27_)">
			<g>
				<defs>
					<rect id="SVGID_43_" x="666.602" y="987.702" width="20.157" height="19.131"/>
				</defs>
				<clipPath id="SVGID_44_">
					<use xlink:href="#SVGID_43_"  overflow="visible"/>
				</clipPath>
				
					<line clip-path="url(#SVGID_44_)" fill="none" stroke="#000000" stroke-width="5" stroke-miterlimit="10" x1="668.296" y1="989.541" x2="685.065" y2="1004.994"/>
			</g>
		</g>
		<g opacity="0.57" clip-path="url(#SVGID_27_)">
			<g>
				<defs>
					<rect id="SVGID_45_" x="692.277" y="959.844" width="20.157" height="19.13"/>
				</defs>
				<clipPath id="SVGID_46_">
					<use xlink:href="#SVGID_45_"  overflow="visible"/>
				</clipPath>
				
					<line clip-path="url(#SVGID_46_)" fill="none" stroke="#000000" stroke-width="5" stroke-miterlimit="10" x1="693.971" y1="961.682" x2="710.74" y2="977.135"/>
			</g>
		</g>
		<g opacity="0.57" clip-path="url(#SVGID_27_)">
			<g>
				<defs>
					<rect id="SVGID_47_" x="635.488" y="848.449" width="5" height="24"/>
				</defs>
				<clipPath id="SVGID_48_">
					<use xlink:href="#SVGID_47_"  overflow="visible"/>
				</clipPath>
				
					<line clip-path="url(#SVGID_48_)" fill="none" stroke="#000000" stroke-width="5" stroke-miterlimit="10" x1="637.988" y1="848.449" x2="637.988" y2="872.449"/>
			</g>
		</g>
		<g opacity="0.57" clip-path="url(#SVGID_27_)">
			<g>
				<defs>
					<rect id="SVGID_49_" x="585.426" y="863.876" width="20.157" height="19.13"/>
				</defs>
				<clipPath id="SVGID_50_">
					<use xlink:href="#SVGID_49_"  overflow="visible"/>
				</clipPath>
				
					<line clip-path="url(#SVGID_50_)" fill="none" stroke="#000000" stroke-width="5" stroke-miterlimit="10" x1="603.889" y1="881.168" x2="587.12" y2="865.715"/>
			</g>
		</g>
		<polyline clip-path="url(#SVGID_27_)" points="1003.146,1018.037 1003.146,867.037 1003.289,866.829 1001.22,860.87 
			969.791,694.492 969.646,694.537 1039.646,694.537 1039.676,694.492 1071.104,860.87 1071.146,861.037 1071.146,1012.037 
			1071.104,1012.369 1032.533,1157.786 1032.646,1157.537 966.646,1157.537 966.22,1157.786 1004.791,1012.369 		"/>
		<polyline clip-path="url(#SVGID_27_)" fill="none" stroke="#000000" stroke-width="3" stroke-miterlimit="10" points="
			1003.146,1018.037 1003.146,867.037 1003.289,866.829 1001.22,860.87 969.791,694.492 969.646,694.537 1039.646,694.537 
			1039.676,694.492 1071.104,860.87 1071.146,861.037 1071.146,1012.037 1071.104,1012.369 1032.533,1157.786 1032.646,1157.537 
			966.646,1157.537 966.22,1157.786 1004.791,1012.369 		"/>
		<g opacity="0.57" clip-path="url(#SVGID_27_)">
			<g>
				<defs>
					<rect id="SVGID_51_" x="560.31" y="891.129" width="20.157" height="19.131"/>
				</defs>
				<clipPath id="SVGID_52_">
					<use xlink:href="#SVGID_51_"  overflow="visible"/>
				</clipPath>
				
					<line clip-path="url(#SVGID_52_)" fill="none" stroke="#000000" stroke-width="5" stroke-miterlimit="10" x1="578.773" y1="908.421" x2="562.004" y2="892.968"/>
			</g>
		</g>
	</g>
	<g clip-path="url(#SVGID_2_)">
		<defs>
			<rect id="SVGID_53_" x="42" y="60.697" width="1728" height="1296"/>
		</defs>
		<clipPath id="SVGID_54_">
			<use xlink:href="#SVGID_53_"  overflow="visible"/>
		</clipPath>
	</g>
</g>
<polygon fill="#090C1A" points="1102.987,758.179 319.65,758.179 348.218,708.697 1131.555,708.697 "/>
<rect x="829" y="680.16" fill="#090C1A" width="70" height="7.84"/>



<!-- kabel 1 -->
	<path fill="#FFEC00" d="M409.06,733.152c-22.865,0-24.539,2.188-28.779-20.207c-3.172-16.758-7.736-33.219-11.122-49.932
	c-6.754-33.339-9.571-68.394,8.183-99.004c23.273-40.124,80.042-42.136,119.872-27.256c45.397,16.959,53.809,72.556,63.401,113.874
	c6.426,27.674,20.082,68.602,12.448,96.416c-32.072-9.414-32.286-50.727-36.396-77.617c-4.206-27.515-17.926-60.972-31.613-87.024
	c-20.794-39.581-38.473-44.987-82.52-10.454c-43.447,34.063-11.875,115.908-11.875,161.205"/>

<!-- kabel 2 -->
	<path fill="#3658A5" d="M525.023,721.878c-16.026-45.939-31.922-123.037-11.498-171.491c22.334-52.985,79.973-69.247,133.362-60.063
	c45.392,7.808,61.62,40.013,66.09,82.104c5.983,56.355,9.711,113.273,17.797,169.203c-41.722,11.531-32.411-44.172-37.758-72.25
	c-6.836-35.898-0.625-90.464-28.495-119.156c-19.638-20.218-92.479-16.379-108.989,8.11c-9.799,14.534-3.699,40.431-4.509,57.544
	c-0.995,21.043-6.815,41.781-8.104,63.242c-0.98,16.338,12.146,56.838-15.594,48.455c-0.437-2.527-0.444-5.086-0.303-7.697"/>

<!-- kabel 3 -->	
	<path fill="#83BE60" d="M834.876,746.813c1.189-29.959-6.021-61.779-10.258-91.143c-4.064-28.19-7.543-79.741-48-69.095
	c-44.601,11.736-43.222,74.058-44.163,110.205c-0.522,20.025,7.295,49.57-19.572,47.281c-33.513-2.855-22.31-49.33-22.31-73.006
	c0-65.597,8.492-104.983,77.651-125.971c30.105-9.137,64.718-14.307,82.38,15.918c13.268,22.702,16.01,54.863,23.619,79.954
	c5.281,17.414,7.754,34.076,8.342,52.181c0.428,13.182,3.738,33.336-3.826,45.164C868.321,754.59,852.743,747.842,834.876,746.813z"
	/>

<!-- kabel 4 -->	
	<path fill="#E01314" d="M855.394,722.021c-6.902-17.463-2.725-46.411-2.594-65.033c0.175-24.999,5.021-49.026,16.543-71.885
	c18.512-36.728,97.916-64.835,132.624-35.092c41.611,35.66,46.813,81.104,57.336,129.879c2.612,12.111,6.02,25.387,6.722,37.508
	c0.613,10.602-1.854,21.715,2.471,31.535c-7.225,1.559-38.069,0.078-41.624-4.213c-5.672-6.844,0.79-39.012-0.166-48.477
	c-1.761-17.439-8.029-37.869-13.978-54.648c-6.588-18.579-16.984-41.917-31.67-55.14c-22.601-20.348-68.5-13.367-81.781,13.5
	c-14.855,30.056-19.968,68.869-17.949,101.933c0.62,10.166,9.841,30.83,5.649,39.535c-5.755,11.943-28.974,7.922-39.378,3.184
	c2.76-7.322,8.867-17.078,7.795-24.986"/>
	

<!-- kable poucinane -->
<!-- 1 -->	
	<path fill="#FFEC00" d="M365,610c-3.595-9.748-1.741-19.972-7.278-30.104c-5.282-9.665-12.424-15.456-20.396-21.615
	c5.875-6.909,13.586-10.203,20.477-15.931c4.69,15.425,20.144,22.01,29.249,31.792C399.576,587.596,405,597.755,405,617.023
	c0,19.363-5.745,37.808-2,57.2c2.114,10.947,6.541,21.417,8.246,32.555c1.201,7.845-0.248,15.868-0.397,24.071
	c-6.554-0.712-12.344,6.755-18.872,4.171c-3.894-1.541-6.895-11.431-9.225-15.772c-6.14-11.441-8.948-22.952-9.756-36.247
	c-0.763-12.544,0.432-26.329-0.974-39.027c-1.432-12.937-5.688-25.13-7.023-37.973"/>
	<path fill="#FFEC00" d="M551,731c-10.216-15.726-11.226-37.23-14.973-55.007c-4.08-19.355-10.381-37.983-13.027-57.744
	c-2.622-19.577-6.794-37.302-21.249-51.055c-14.333-13.638-34.742-17.956-48.728-32.221c-6.917-7.054-9.205-6.621-1.219-15.24
	c3.816-4.119,7.771-8.003,13.021-9.333c3.611,6.283,5.052,14.709,10.872,19.625c6.576,5.554,17.413,8.377,25.107,11.972
	c9.156,4.277,16.779,7.059,22.474,16.236c5.433,8.755,9.989,18.686,14.719,27.79c8.997,17.317,16.147,37.527,21.028,57.029
	c4.738,18.929,12.217,36.731,16.198,56.124c1.914,9.324,10.172,47.237-6.219,45.82C559.321,744.159,547.225,723.722,543,715"/>
	
<!-- 2 -->		
	<path fill="#3658A5" d="M523,725c-6.279-16.019-8.672-35.062-12.945-52.028c-5.774-22.926-5.228-40.533-2.833-63.721
	c2.239-21.679,0.702-43.526,9.829-64.025c8.83-19.832,24.872-27.163,41.403-39.676c9.247-6.999,15.522-15.939,23.572-23.689
	c7.386,12.565,11.391,36.918,8.921,52.143c-1.064,6.566,0.451,4.405-5.199,8.722c-3.742,2.859-7.579,3.817-11.801,6.052
	c-7.293,3.861-14.072,6.513-18.973,13.424C543.64,578.184,547,601.506,547,620.274c0,22.466-8.75,38.736-12.246,60.559
	c-1.868,11.657,4.365,22.15,5.269,34.19c0.973,12.963-3.409,14.835-15.875,13.825c-0.085-1.708-1.078-3.229-1.147-4.849"/>

	<path fill="#3658A5" d="M690,726c3.838-17.661-3.761-34.234,0-52.777c4.34-21.4-1.898-38.631-5.028-59.468
	c-1.436-9.557-0.254-20.095-2.194-29.703c-2.278-11.284-7.941-22.021-10.606-33.301c-4.017-16.994-7.868-34.196-11.196-51.52
	c-1.943-10.113-5.83-24.563-3.027-35.125c0.599-2.257,0.596-4.726,1.226-6.999c10.203,0.796,21.395-3.614,31.817-3.98
	c0.416,9.53-2.379,19.08-1.014,28.675c1.583,11.13,6.786,21.689,9.026,32.747c4.748,23.435,13.382,46.215,18.774,69.427
	c6.578,28.315,2.455,59.164,6.171,87.781c2.789,21.473,9.862,48.042,4.9,69.071C714.314,750.268,698.664,732.21,691,723"/>
	
	
	<!-- 3 -->	
	<path fill="#83BE60" d="M694,733c-7.478-7.666-8.059-35.658-9.052-46.726c-1.666-18.574,5.255-37.757,7.052-56.353
	c1.965-20.34,8.689-34.5,19.854-51.438c12.187-18.488,20.541-38.648,30.119-59.461c5.423-11.783,5.336-21.019,18.505-14.749
	c8.463,4.029,19.322,12,16.518,21.699c-2.868,9.92-13.317,15.628-16.219,26.975c-2.865,11.206-3.283,22.688-6.503,33.851
	c-5.772,20.008-14.803,40.543-19.1,61.225c-4.533,21.816-2.17,46.312-2.174,68.948c-0.002,12.887-2.843,27.788-19.055,26.052
	C702.685,741.816,692.288,731.256,691,720"/>
	
   <path fill="#83BE60" d="M836,746c-13.366-15.849-3.561-42.512-6.223-62c-2.406-17.617-7.564-35.819-11-52.754
	c-3.458-17.044-5.931-36.012-6.777-54c-1.01-21.478-4.713-33.719,7.722-52.497c2.935-4.431,6.239-8.466,8.5-13.47
	c3.56,7.162,9.554,14.529,15.082,20.468c3.317,3.564,7.729,5.836,9.863,10.275c3.069,6.384,0.923,3.56,0.059,10.226
	c-2.378,18.326,0.745,32.771,7.02,50.454c9.489,26.738,17.448,54.165,20.703,82.427c1.48,12.852,3.371,24.861,4.052,37.898
	c0.62,11.877,3.911,16.946-8.465,20.726c-11.541,3.525-31.396,7.457-43.338,3.123c-1.692-3.802-2.567-7.582-2.197-11.877"/>

	<!-- 4 -->	
	<path fill="#E01314" d="M1028,744c-8.262-12.61-2.705-36.021-2-50.974c0.804-17.056-2.206-28.056-9.749-43.055
	c-7.471-14.855-11.935-31.82-19.721-46.025c-7.71-14.064-19.772-18.829-34.356-25.121c-1.141-14.631-9.404-41.913,14.906-33.854
	c23.547,7.805,42.114,24.277,55.214,45.247c9.18,14.695,16.123,32.254,21.754,48.582c5.085,14.743,3.138,30.385,6.123,45.422
	c2.181,10.985,5.35,21.44,5.825,33.074c0.253,6.161,4.167,26.229,1.127,30.774c-0.166,0.253-0.331,0.505-0.497,0.758
	c-15.681,7.2-28.828-8.983-43.626-10.829"/>
	
	
  <path fill="#E01314" d="M855,729c-1.144-9.496,1.342-18.368-0.027-27.977c-1.225-8.605-2.262-17.835-2.97-26.296
	c-1.717-20.526,4.247-37.451,8.997-56.656c5.047-20.407,10.013-40.674,17.023-60.625c6.984-19.879,13.896-44.378,36.868-50.415
	c3.343,8.628,10.892,20.407,8.859,28.742c-1.544,6.332-7.534,13.026-10,19.758c-6.927,18.905-14.149,37.673-22.021,57.19
	c-8.604,21.33-8.729,40.476-8.729,64.262c0,14.313,2.439,26.119,5.223,39.713c1.587,7.755,3.892,18.746-0.476,26.054
	c-5.153,8.624-19.884,7.681-28.775,4.301c-17.531-6.665-3.272-19.421-3.972-32.052"/>	
	
</svg>
