<?xml version="1.0" encoding="utf-8"?>
<!-- Generator: Adobe Illustrator 15.0.0, SVG Export Plug-In . SVG Version: 6.00 Build 0)  -->
<!DOCTYPE svg PUBLIC "-//W3C//DTD SVG 1.1//EN" "http://www.w3.org/Graphics/SVG/1.1/DTD/svg11.dtd">
<svg version="1.1" id="Layer_1" xmlns="http://www.w3.org/2000/svg" xmlns:xlink="http://www.w3.org/1999/xlink" x="0px" y="0px"
	 width="1118.67px" height="767.917px" viewBox="-81.333 20.417 1118.67 767.917"
	 enable-background="new -81.333 20.417 1118.67 767.917" xml:space="preserve">

	<!--  kable  -->
																														
																										
																										
																									<path id="kabel3" clip-path="url(#SVGID_136_)" fill="#83BE60" d="M551.873,314.104
																											c1.189-29.959-6.021-61.779-10.258-91.144c-4.064-28.19-7.543-79.741-48-69.095
																											c-44.602,11.735-43.222,74.058-44.163,110.205c-0.522,20.024,7.295,49.569-19.572,47.28
																											c-33.513-2.854-22.31-49.329-22.31-73.006c0-65.597,8.491-104.982,77.65-125.971
																											c30.105-9.137,64.719-14.307,82.38,15.918c13.269,22.702,16.011,54.863,23.619,79.954
																											c5.281,17.414,7.754,34.076,8.342,52.181c0.429,13.183,3.738,33.336-3.825,45.164
																											C585.318,321.88,569.74,315.132,551.873,314.104z"/>

											</svg>