<?xml version="1.0" encoding="utf-8"?>
<!-- Generator: Adobe Illustrator 15.0.0, SVG Export Plug-In . SVG Version: 6.00 Build 0)  -->
<!DOCTYPE svg PUBLIC "-//W3C//DTD SVG 1.1//EN" "http://www.w3.org/Graphics/SVG/1.1/DTD/svg11.dtd">
<svg version="1.1" id="Layer_1" xmlns="http://www.w3.org/2000/svg" xmlns:xlink="http://www.w3.org/1999/xlink" x="0px" y="0px"
	 width="1118.67px" height="767.917px" viewBox="-81.333 20.417 1118.67 767.917"
	 enable-background="new -81.333 20.417 1118.67 767.917" xml:space="preserve">

	<!--  kable  -->
																														
																										
																										
																									<path clip-path="url(#SVGID_136_)" fill="#3658A5" d="M239.997,292.291
																											c-6.279-16.019-8.672-35.062-12.945-52.028c-5.773-22.926-5.228-40.533-2.833-63.721
																											c2.239-21.679,0.702-43.526,9.829-64.025c8.83-19.832,24.872-27.163,41.403-39.676
																											c9.247-6.999,15.521-15.938,23.572-23.688c7.386,12.564,11.391,36.918,8.921,52.143
																											c-1.064,6.566,0.451,4.405-5.199,8.722c-3.742,2.859-7.579,3.817-11.801,6.053
																											c-7.293,3.86-14.072,6.513-18.974,13.424c-11.334,15.981-7.974,39.304-7.974,58.072
																											c0,22.466-8.75,38.735-12.246,60.559c-1.868,11.657,4.365,22.15,5.27,34.19
																											c0.973,12.963-3.409,14.835-15.875,13.824c-0.086-1.708-1.078-3.229-1.147-4.849"/>
																										<path clip-path="url(#SVGID_136_)" fill="#3658A5" d="M406.997,293.291
																											c3.838-17.661-3.761-34.234,0-52.777c4.34-21.399-1.898-38.631-5.028-59.468
																											c-1.436-9.557-0.254-20.095-2.193-29.703c-2.278-11.284-7.941-22.021-10.606-33.301
																											c-4.017-16.994-7.868-34.196-11.196-51.52c-1.942-10.113-5.829-24.563-3.026-35.125
																											c0.599-2.258,0.596-4.727,1.226-6.999c10.203,0.796,21.396-3.614,31.817-3.98
																											c0.416,9.53-2.379,19.08-1.014,28.675c1.583,11.13,6.785,21.689,9.025,32.747
																											c4.748,23.436,13.382,46.215,18.774,69.427c6.578,28.315,2.455,59.164,6.171,87.781
																											c2.789,21.473,9.862,48.042,4.9,69.071c-14.535,9.439-30.186-8.618-37.85-17.828"/>
											
											
											
											
											</svg>