<?xml version="1.0" encoding="utf-8"?>
<!-- Generator: Adobe Illustrator 15.0.0, SVG Export Plug-In . SVG Version: 6.00 Build 0)  -->
<!DOCTYPE svg PUBLIC "-//W3C//DTD SVG 1.1//EN" "http://www.w3.org/Graphics/SVG/1.1/DTD/svg11.dtd">
<svg version="1.1" id="Layer_1" xmlns="http://www.w3.org/2000/svg" xmlns:xlink="http://www.w3.org/1999/xlink" x="0px" y="0px"
	 width="1118.67px" height="767.917px" viewBox="-81.333 20.417 1118.67 767.917"
	 enable-background="new -81.333 20.417 1118.67 767.917" xml:space="preserve">

	<!--  kable  -->
																														
																										
																								<path clip-path="url(#SVGID_136_)" fill="#83BE60" d="M410.997,300.291
																											c-7.479-7.666-8.059-35.658-9.052-46.726c-1.666-18.574,5.255-37.758,7.052-56.354
																											c1.965-20.34,8.689-34.5,19.854-51.438c12.188-18.488,20.541-38.648,30.119-59.461
																											c5.424-11.783,5.336-21.02,18.506-14.749c8.463,4.028,19.321,11.999,16.518,21.698
																											c-2.868,9.92-13.317,15.628-16.219,26.976c-2.865,11.206-3.283,22.688-6.503,33.851
																											c-5.772,20.008-14.804,40.543-19.101,61.225c-4.533,21.816-2.17,46.313-2.174,68.948
																											c-0.002,12.888-2.843,27.788-19.055,26.052c-11.261-1.206-21.657-11.767-22.945-23.022"/>
																										<path clip-path="url(#SVGID_136_)" fill="#83BE60" d="M552.997,313.291
																											c-13.366-15.849-3.561-42.512-6.223-62c-2.406-17.617-7.564-35.819-11-52.754
																											c-3.458-17.044-5.932-36.012-6.777-54c-1.01-21.479-4.713-33.719,7.722-52.497
																											c2.936-4.431,6.239-8.466,8.5-13.47c3.561,7.162,9.555,14.528,15.082,20.468
																											c3.317,3.563,7.729,5.836,9.863,10.275c3.069,6.384,0.923,3.56,0.059,10.226
																											c-2.378,18.326,0.745,32.771,7.021,50.454c9.489,26.738,17.448,54.165,20.703,82.427
																											c1.479,12.853,3.371,24.861,4.052,37.898c0.62,11.877,3.911,16.945-8.465,20.726
																											c-11.541,3.525-31.396,7.457-43.338,3.123c-1.692-3.802-2.567-7.582-2.197-11.877"/>
																										
											
											
											</svg>