<?xml version="1.0" encoding="UTF-8" standalone="no"?>
<!-- Generator: Adobe Illustrator 15.0.0, SVG Export Plug-In . SVG Version: 6.00 Build 0)  -->

<svg
   xmlns:dc="http://purl.org/dc/elements/1.1/"
   xmlns:cc="http://creativecommons.org/ns#"
   xmlns:rdf="http://www.w3.org/1999/02/22-rdf-syntax-ns#"
   xmlns:svg="http://www.w3.org/2000/svg"
   xmlns="http://www.w3.org/2000/svg"
   xmlns:sodipodi="http://sodipodi.sourceforge.net/DTD/sodipodi-0.dtd"
   xmlns:inkscape="http://www.inkscape.org/namespaces/inkscape"
   version="1.1"
   id="Layer_1"
   x="0px"
   y="0px"
   width="57mm"
   height="58mm"
   viewBox="-81.333 20.417 215.43306 219.21259"
   enable-background="new -81.333 20.417 1118.67 767.917"
   xml:space="preserve"
   sodipodi:docname="1.svg"
   inkscape:version="0.92.3 (2405546, 2018-03-11)"><metadata
   id="metadata24"><rdf:RDF><cc:Work
       rdf:about=""><dc:format>image/svg+xml</dc:format><dc:type
         rdf:resource="http://purl.org/dc/dcmitype/StillImage" /><dc:title></dc:title></cc:Work></rdf:RDF></metadata><defs
   id="defs22" /><sodipodi:namedview
   pagecolor="#ffffff"
   bordercolor="#666666"
   borderopacity="1"
   objecttolerance="10"
   gridtolerance="10"
   guidetolerance="10"
   inkscape:pageopacity="0"
   inkscape:pageshadow="2"
   inkscape:window-width="1920"
   inkscape:window-height="1017"
   id="namedview20"
   showgrid="false"
   inkscape:snap-global="false"
   units="mm"
   width="72mm"
   inkscape:zoom="1.104286"
   inkscape:cx="559.33502"
   inkscape:cy="239.0685"
   inkscape:window-x="-8"
   inkscape:window-y="-8"
   inkscape:window-maximized="1"
   inkscape:current-layer="Layer_1" />

	<!--  kable  -->
																														
																										
																										
																										<path
   id="kabel1"
   clip-path="url(#SVGID_136_)"
   d="m -31.511872,227.15895 c -22.864,0 -24.538,2.188 -28.778,-20.207 -3.172,-16.75899 -7.736,-33.21999 -11.122,-49.93299 -6.754,-33.339 -9.571,-68.394 8.183,-99.004 23.273,-40.124 80.042,-42.136 119.872,-27.256 45.396992,16.959 53.809992,72.556 63.400992,113.874 6.426,27.674 20.082,68.60199 12.447,96.41599 -32.071,-9.414 -32.285,-50.72699 -36.395994,-77.61699 -4.205998,-27.515 -17.925998,-60.972 -31.612998,-87.023 -20.794,-39.581 -38.473,-44.987 -82.52,-10.454 -43.447,34.063 -11.875,115.908 -11.875,161.20499"
   inkscape:connector-curvature="0"
   style="fill:#ffec00" />
																											
											</svg>