<?xml version="1.0" encoding="utf-8"?>
<!-- Generator: Adobe Illustrator 15.0.0, SVG Export Plug-In . SVG Version: 6.00 Build 0)  -->
<!DOCTYPE svg PUBLIC "-//W3C//DTD SVG 1.1//EN" "http://www.w3.org/Graphics/SVG/1.1/DTD/svg11.dtd">
<svg version="1.1" id="Layer_1" xmlns="http://www.w3.org/2000/svg" xmlns:xlink="http://www.w3.org/1999/xlink" x="0px" y="0px"
	 width="1118.67px" height="767.917px" viewBox="-81.333 20.417 1118.67 767.917"
	 enable-background="new -81.333 20.417 1118.67 767.917" xml:space="preserve">

	<!--  kable  -->
																														
																										
																										
																										<path id="kabel1" clip-path="url(#SVGID_136_)" fill="#FFEC00" d="M126.056,300.443
																											c-22.864,0-24.538,2.188-28.778-20.207c-3.172-16.759-7.736-33.22-11.122-49.933
																											c-6.754-33.339-9.571-68.394,8.183-99.004c23.273-40.124,80.042-42.136,119.872-27.256
																											c45.397,16.959,53.81,72.556,63.401,113.874c6.426,27.674,20.082,68.602,12.447,96.416
																											c-32.071-9.414-32.285-50.727-36.396-77.617c-4.206-27.515-17.926-60.972-31.613-87.023
																											c-20.794-39.581-38.473-44.987-82.52-10.454c-43.447,34.063-11.875,115.908-11.875,161.205"/>
																											
											</svg>