<?xml version="1.0" encoding="UTF-8" standalone="no"?>
<!-- Generator: Adobe Illustrator 15.0.0, SVG Export Plug-In . SVG Version: 6.00 Build 0)  -->

<svg
   xmlns:dc="http://purl.org/dc/elements/1.1/"
   xmlns:cc="http://creativecommons.org/ns#"
   xmlns:rdf="http://www.w3.org/1999/02/22-rdf-syntax-ns#"
   xmlns:svg="http://www.w3.org/2000/svg"
   xmlns="http://www.w3.org/2000/svg"
   xmlns:sodipodi="http://sodipodi.sourceforge.net/DTD/sodipodi-0.dtd"
   xmlns:inkscape="http://www.inkscape.org/namespaces/inkscape"
   version="1.1"
   id="Layer_1"
   x="0px"
   y="0px"
   width="62mm"
   height="68mm"
   viewBox="-81.333 20.417 234.33071 257.00788"
   enable-background="new -81.333 20.417 1118.67 767.917"
   xml:space="preserve"
   sodipodi:docname="2.svg"
   inkscape:version="0.92.3 (2405546, 2018-03-11)"><metadata
   id="metadata24"><rdf:RDF><cc:Work
       rdf:about=""><dc:format>image/svg+xml</dc:format><dc:type
         rdf:resource="http://purl.org/dc/dcmitype/StillImage" /><dc:title></dc:title></cc:Work></rdf:RDF></metadata><defs
   id="defs22" /><sodipodi:namedview
   pagecolor="#ffffff"
   bordercolor="#666666"
   borderopacity="1"
   objecttolerance="10"
   gridtolerance="10"
   guidetolerance="10"
   inkscape:pageopacity="0"
   inkscape:pageshadow="2"
   inkscape:window-width="1920"
   inkscape:window-height="1017"
   id="namedview20"
   showgrid="false"
   units="mm"
   inkscape:zoom="1.104286"
   inkscape:cx="559.33502"
   inkscape:cy="383.9585"
   inkscape:window-x="-8"
   inkscape:window-y="-8"
   inkscape:window-maximized="1"
   inkscape:current-layer="Layer_1" />

	<!--  kable  -->
																														
																										
																										
																									<path
   id="kabel2"
   clip-path="url(#SVGID_136_)"
   d="m -55.004497,258.20702 c -16.026,-45.939 -31.923,-123.037 -11.498,-171.490999 22.334,-52.984 79.973,-69.247 133.361,-60.063 45.392997,7.808 61.619997,40.013 66.089997,82.103999 5.983,56.355 9.712,113.273 17.798,169.203 -41.723,11.531 -32.411,-44.172 -37.759,-72.25 -6.836,-35.897 -0.625,-90.464 -28.493997,-119.155999 -19.639,-20.218 -92.4790001,-16.379 -108.989,8.11 -9.799,14.533999 -3.699,40.430999 -4.509,57.543999 -0.995,21.043 -6.815,41.781 -8.104,63.242 -0.979,16.338 12.146,56.838 -15.594,48.455 -0.438,-2.527 -0.444,-5.086 -0.303,-7.697"
   inkscape:connector-curvature="0"
   style="fill:#3658a5" />
											</svg>