<?xml version="1.0" encoding="UTF-8" standalone="no"?>
<!-- Generator: Adobe Illustrator 15.0.0, SVG Export Plug-In . SVG Version: 6.00 Build 0)  -->

<svg
   xmlns:dc="http://purl.org/dc/elements/1.1/"
   xmlns:cc="http://creativecommons.org/ns#"
   xmlns:rdf="http://www.w3.org/1999/02/22-rdf-syntax-ns#"
   xmlns:svg="http://www.w3.org/2000/svg"
   xmlns="http://www.w3.org/2000/svg"
   xmlns:sodipodi="http://sodipodi.sourceforge.net/DTD/sodipodi-0.dtd"
   xmlns:inkscape="http://www.inkscape.org/namespaces/inkscape"
   version="1.1"
   id="Layer_1"
   x="0px"
   y="0px"
   width="52mm"
   height="56mm"
   viewBox="-81.333 20.417 196.53543 211.65354"
   enable-background="new -81.333 20.417 1118.67 767.917"
   xml:space="preserve"
   sodipodi:docname="3.svg"
   inkscape:version="0.92.3 (2405546, 2018-03-11)"><metadata
   id="metadata24"><rdf:RDF><cc:Work
       rdf:about=""><dc:format>image/svg+xml</dc:format><dc:type
         rdf:resource="http://purl.org/dc/dcmitype/StillImage" /><dc:title></dc:title></cc:Work></rdf:RDF></metadata><defs
   id="defs22" /><sodipodi:namedview
   pagecolor="#ffffff"
   bordercolor="#666666"
   borderopacity="1"
   objecttolerance="10"
   gridtolerance="10"
   guidetolerance="10"
   inkscape:pageopacity="0"
   inkscape:pageshadow="2"
   inkscape:window-width="1920"
   inkscape:window-height="1017"
   id="namedview20"
   showgrid="false"
   units="mm"
   inkscape:zoom="1.104286"
   inkscape:cx="559.33502"
   inkscape:cy="383.9585"
   inkscape:window-x="-8"
   inkscape:window-y="-8"
   inkscape:window-maximized="1"
   inkscape:current-layer="Layer_1" />

	<!--  kable  -->
																														
																										
																										
																									<path
   id="kabel3"
   clip-path="url(#SVGID_136_)"
   d="m 67.397067,231.44971 c 1.189,-29.959 -6.021,-61.779 -10.258,-91.144 -4.064,-28.19 -7.543,-79.740992 -48,-69.094992 -44.602,11.735 -43.222,74.057992 -44.163,110.204992 -0.522,20.024 7.295,49.569 -19.572,47.28 -33.513,-2.854 -22.31,-49.329 -22.31,-73.006 0,-65.596992 8.491,-104.981997 77.65000042,-125.970997 30.10499958,-9.137 64.71899958,-14.30699 82.37999958,15.918 13.269,22.702005 16.010998,54.863007 23.618993,79.953997 5.281,17.414 7.754,34.076 8.342,52.181 0.429,13.183 3.738,33.336 -3.825,45.164 -10.41799,16.29 -25.995993,9.542 -43.862993,8.514 z"
   inkscape:connector-curvature="0"
   style="fill:#83be60" />

											</svg>