<?xml version="1.0" encoding="utf-8"?>
<!-- Generator: Adobe Illustrator 15.0.0, SVG Export Plug-In . SVG Version: 6.00 Build 0)  -->
<!DOCTYPE svg PUBLIC "-//W3C//DTD SVG 1.1//EN" "http://www.w3.org/Graphics/SVG/1.1/DTD/svg11.dtd">
<svg version="1.1" id="Layer_1" xmlns="http://www.w3.org/2000/svg" xmlns:xlink="http://www.w3.org/1999/xlink" x="0px" y="0px"
	 width="1118.67px" height="767.917px" viewBox="-81.333 20.417 1118.67 767.917"
	 enable-background="new -81.333 20.417 1118.67 767.917" xml:space="preserve">

	<!--  kable  -->
																														
																										
																										
																									<path id="kabel4" clip-path="url(#SVGID_136_)" fill="#E01314" d="M572.39,289.311
																											c-6.901-17.463-2.725-46.41-2.594-65.032c0.175-24.999,5.021-49.026,16.543-71.886
																											c18.513-36.728,97.916-64.835,132.624-35.092c41.611,35.66,46.813,81.104,57.336,129.879
																											c2.612,12.111,6.021,25.388,6.723,37.509c0.612,10.602-1.854,21.715,2.472,31.534
																											c-7.226,1.56-38.07,0.078-41.625-4.213c-5.672-6.844,0.79-39.012-0.166-48.477
																											c-1.761-17.439-8.029-37.869-13.979-54.648c-6.588-18.579-16.983-41.917-31.67-55.14
																											c-22.601-20.349-68.5-13.367-81.78,13.5c-14.855,30.056-19.969,68.869-17.949,101.933
																											c0.62,10.166,9.841,30.83,5.648,39.535c-5.755,11.943-28.974,7.922-39.378,3.184
																											c2.761-7.321,8.867-17.077,7.795-24.985"/>
											</svg>