<?xml version="1.0" encoding="UTF-8" standalone="no"?>
<!-- Generator: Adobe Illustrator 15.0.0, SVG Export Plug-In . SVG Version: 6.00 Build 0)  -->

<svg
   xmlns:dc="http://purl.org/dc/elements/1.1/"
   xmlns:cc="http://creativecommons.org/ns#"
   xmlns:rdf="http://www.w3.org/1999/02/22-rdf-syntax-ns#"
   xmlns:svg="http://www.w3.org/2000/svg"
   xmlns="http://www.w3.org/2000/svg"
   xmlns:sodipodi="http://sodipodi.sourceforge.net/DTD/sodipodi-0.dtd"
   xmlns:inkscape="http://www.inkscape.org/namespaces/inkscape"
   version="1.1"
   id="Layer_1"
   x="0px"
   y="0px"
   width="60mm"
   height="57mm"
   viewBox="-81.333 20.417 226.77165 215.43307"
   enable-background="new -81.333 20.417 1118.67 767.917"
   xml:space="preserve"
   sodipodi:docname="4.svg"
   inkscape:version="0.92.3 (2405546, 2018-03-11)"><metadata
   id="metadata24"><rdf:RDF><cc:Work
       rdf:about=""><dc:format>image/svg+xml</dc:format><dc:type
         rdf:resource="http://purl.org/dc/dcmitype/StillImage" /><dc:title></dc:title></cc:Work></rdf:RDF></metadata><defs
   id="defs22" /><sodipodi:namedview
   pagecolor="#ffffff"
   bordercolor="#666666"
   borderopacity="1"
   objecttolerance="10"
   gridtolerance="10"
   guidetolerance="10"
   inkscape:pageopacity="0"
   inkscape:pageshadow="2"
   inkscape:window-width="1920"
   inkscape:window-height="1017"
   id="namedview20"
   showgrid="false"
   units="mm"
   inkscape:zoom="1.104286"
   inkscape:cx="559.33502"
   inkscape:cy="383.9585"
   inkscape:window-x="-8"
   inkscape:window-y="-8"
   inkscape:window-maximized="1"
   inkscape:current-layer="Layer_1" />

	<!--  kable  -->
																														
																										
																										
																									<path
   id="kabel4"
   clip-path="url(#SVGID_136_)"
   d="m -68.748243,207.71955 c -6.901,-17.463 -2.725,-46.41 -2.594,-65.032 0.175,-24.999 5.021,-49.025993 16.543,-71.885996 18.513,-36.728 97.916,-64.8350006 132.624,-35.092 41.610993,35.66 46.812993,81.103996 57.335993,129.878996 2.612,12.111 6.021,25.388 6.723,37.509 0.612,10.602 -1.854,21.715 2.472,31.534 -7.226,1.56 -38.07,0.078 -41.625,-4.213 -5.671993,-6.844 0.79,-39.012 -0.166,-48.477 -1.76099,-17.439 -8.028993,-37.869 -13.978993,-54.648 -6.588,-18.579 -16.983,-41.916995 -31.67,-55.139996 -22.601,-20.349 -68.5,-13.367 -81.78,13.500001 -14.855,30.055995 -19.969,68.868995 -17.949,101.932995 0.62,10.166 9.841,30.83 5.648,39.535 -5.755,11.943 -28.974,7.922 -39.378,3.184 2.761,-7.321 8.867,-17.077 7.795,-24.985"
   inkscape:connector-curvature="0"
   style="fill:#e01314" />
											</svg>