<?xml version="1.0" encoding="utf-8"?>
<!-- Generator: Adobe Illustrator 15.0.0, SVG Export Plug-In . SVG Version: 6.00 Build 0)  -->
<!DOCTYPE svg PUBLIC "-//W3C//DTD SVG 1.1//EN" "http://www.w3.org/Graphics/SVG/1.1/DTD/svg11.dtd">
<svg version="1.1" id="Layer_1" xmlns="http://www.w3.org/2000/svg" xmlns:xlink="http://www.w3.org/1999/xlink" x="0px" y="0px"
	 width="1118.67px" height="767.917px" viewBox="-81.333 20.417 1118.67 767.917"
	 enable-background="new -81.333 20.417 1118.67 767.917" xml:space="preserve">

	<!--  kable  -->
																														
																										
																										
																									<path clip-path="url(#SVGID_136_)" fill="#FFEC00" d="M81.997,177.291
																											c-3.595-9.748-1.741-19.972-7.278-30.104c-5.281-9.664-12.424-15.455-20.396-21.614
																											c5.875-6.909,13.586-10.203,20.477-15.932c4.69,15.426,20.145,22.011,29.249,31.792
																											c12.524,13.454,17.948,23.613,17.948,42.882c0,19.362-5.745,37.808-2,57.199
																											c2.114,10.947,6.541,21.417,8.246,32.556c1.201,7.845-0.248,15.867-0.397,24.07
																											c-6.554-0.712-12.344,6.756-18.872,4.172c-3.894-1.541-6.895-11.432-9.225-15.772
																											c-6.14-11.441-8.948-22.952-9.756-36.247c-0.763-12.544,0.432-26.329-0.975-39.027
																											c-1.432-12.937-5.688-25.13-7.022-37.973"/>
																										<path clip-path="url(#SVGID_136_)" fill="#FFEC00" d="M267.997,298.291
																											c-10.216-15.726-11.226-37.229-14.973-55.007c-4.08-19.355-10.381-37.983-13.027-57.744
																											c-2.622-19.577-6.794-37.302-21.249-51.055c-14.333-13.639-34.742-17.956-48.728-32.222
																											c-6.917-7.054-9.205-6.621-1.22-15.239c3.816-4.119,7.771-8.004,13.021-9.333
																											c3.61,6.282,5.052,14.709,10.872,19.625c6.576,5.554,17.413,8.377,25.106,11.972
																											c9.156,4.277,16.779,7.059,22.475,16.236c5.433,8.755,9.988,18.686,14.719,27.789
																											c8.997,17.317,16.146,37.527,21.028,57.029c4.737,18.93,12.217,36.731,16.197,56.124
																											c1.914,9.324,10.172,47.237-6.219,45.82c-9.683-0.837-21.779-21.274-26.004-29.996"/>
											</svg>