<?xml version="1.0" encoding="UTF-8" standalone="no"?>
<!-- Generator: Adobe Illustrator 15.0.0, SVG Export Plug-In . SVG Version: 6.00 Build 0)  -->

<svg
   xmlns:dc="http://purl.org/dc/elements/1.1/"
   xmlns:cc="http://creativecommons.org/ns#"
   xmlns:rdf="http://www.w3.org/1999/02/22-rdf-syntax-ns#"
   xmlns:svg="http://www.w3.org/2000/svg"
   xmlns="http://www.w3.org/2000/svg"
   xmlns:sodipodi="http://sodipodi.sourceforge.net/DTD/sodipodi-0.dtd"
   xmlns:inkscape="http://www.inkscape.org/namespaces/inkscape"
   version="1.1"
   id="Layer_1"
   x="0px"
   y="0px"
   width="63mm"
   height="120mm"
   viewBox="-81.333 20.417 238.11023 453.54329"
   enable-background="new -81.333 20.417 1118.67 767.917"
   xml:space="preserve"
   sodipodi:docname="1.svg"
   inkscape:version="0.92.3 (2405546, 2018-03-11)"><metadata
   id="metadata68"><rdf:RDF><cc:Work
       rdf:about=""><dc:format>image/svg+xml</dc:format><dc:type
         rdf:resource="http://purl.org/dc/dcmitype/StillImage" /><dc:title></dc:title></cc:Work></rdf:RDF></metadata><defs
   id="defs66" /><sodipodi:namedview
   pagecolor="#ffffff"
   bordercolor="#666666"
   borderopacity="1"
   objecttolerance="10"
   gridtolerance="10"
   guidetolerance="10"
   inkscape:pageopacity="0"
   inkscape:pageshadow="2"
   inkscape:window-width="1920"
   inkscape:window-height="1017"
   id="namedview64"
   showgrid="false"
   units="mm"
   inkscape:zoom="1.4361219"
   inkscape:cx="270.51984"
   inkscape:cy="220.36876"
   inkscape:window-x="-8"
   inkscape:window-y="-8"
   inkscape:window-maximized="1"
   inkscape:current-layer="Layer_1" />

	<!--  kable  -->
																														
																										
																										
																									<path
   clip-path="url(#SVGID_136_)"
   d="m -52.505138,118.91989 c -3.595,-9.748 -1.741,-19.972005 -7.278,-30.104005 -5.281,-9.664 -12.424,-15.455 -20.396,-21.614 5.875,-6.909 13.586,-10.203 20.477,-15.932 4.69,15.426 20.145,22.011 29.249,31.792 12.524,13.454 17.948,23.613005 17.948,42.882005 0,19.362 -5.745,37.808 -2,57.199 2.114,10.947 6.5410008,21.417 8.2460008,32.556 1.201,7.845 -0.248,15.867 -0.397,24.07 -6.5540008,-0.712 -12.3440008,6.756 -18.8720008,4.172 -3.894,-1.541 -6.895,-11.432 -9.225,-15.772 -6.14,-11.441 -8.948,-22.952 -9.756,-36.247 -0.763,-12.544 0.432,-26.329 -0.975,-39.027 -1.432,-12.937 -5.688,-25.13 -7.022,-37.973"
   id="path59"
   inkscape:connector-curvature="0"
   style="fill:#ffec00" />
																										<path
   clip-path="url(#SVGID_136_)"
   d="m 130.70958,241.31253 c -10.216,-15.726 -11.226,-37.229 -14.973,-55.007 -4.08,-19.355 -10.381,-37.983 -13.027,-57.744 -2.622,-19.577 -6.793997,-37.302005 -21.248997,-51.055005 -14.333,-13.639 -34.742,-17.956 -48.728,-32.222 -6.917,-7.054 -9.205,-6.621 -1.22,-15.239 3.816,-4.119 7.771,-8.004 13.021,-9.333 3.61,6.282 5.052,14.709 10.872,19.625 6.576,5.554 17.413,8.377 25.106,11.972 9.156,4.277 16.778997,7.059 22.474997,16.236 5.433,8.755 9.988,18.686 14.719,27.789 8.997,17.317005 16.146,37.527005 21.028,57.029005 4.737,18.93 12.217,36.731 16.197,56.124 1.914,9.324 10.172,47.237 -6.219,45.82 -9.683,-0.837 -21.779,-21.274 -26.004,-29.996"
   id="path61"
   inkscape:connector-curvature="0"
   style="fill:#ffec00" />
											</svg>