<?xml version="1.0" encoding="UTF-8" standalone="no"?>
<!-- Generator: Adobe Illustrator 15.0.0, SVG Export Plug-In . SVG Version: 6.00 Build 0)  -->

<svg
   xmlns:dc="http://purl.org/dc/elements/1.1/"
   xmlns:cc="http://creativecommons.org/ns#"
   xmlns:rdf="http://www.w3.org/1999/02/22-rdf-syntax-ns#"
   xmlns:svg="http://www.w3.org/2000/svg"
   xmlns="http://www.w3.org/2000/svg"
   xmlns:sodipodi="http://sodipodi.sourceforge.net/DTD/sodipodi-0.dtd"
   xmlns:inkscape="http://www.inkscape.org/namespaces/inkscape"
   version="1.1"
   id="Layer_1"
   x="0px"
   y="0px"
   width="62mm"
   height="127mm"
   viewBox="-81.333 20.417 234.3307 479.99999"
   enable-background="new -81.333 20.417 1118.67 767.917"
   xml:space="preserve"
   sodipodi:docname="2.svg"
   inkscape:version="0.92.3 (2405546, 2018-03-11)"><metadata
   id="metadata90"><rdf:RDF><cc:Work
       rdf:about=""><dc:format>image/svg+xml</dc:format><dc:type
         rdf:resource="http://purl.org/dc/dcmitype/StillImage" /><dc:title></dc:title></cc:Work></rdf:RDF></metadata><defs
   id="defs88" /><sodipodi:namedview
   pagecolor="#ffffff"
   bordercolor="#666666"
   borderopacity="1"
   objecttolerance="10"
   gridtolerance="10"
   guidetolerance="10"
   inkscape:pageopacity="0"
   inkscape:pageshadow="2"
   inkscape:window-width="1920"
   inkscape:window-height="1017"
   id="namedview86"
   showgrid="false"
   units="mm"
   inkscape:zoom="1.436122"
   inkscape:cx="162.57452"
   inkscape:cy="226.22027"
   inkscape:window-x="-8"
   inkscape:window-y="-8"
   inkscape:window-maximized="1"
   inkscape:current-layer="Layer_1" />

	<!--  kable  -->
																														
																										
																										
																									<path
   clip-path="url(#SVGID_136_)"
   d="m -59.420469,294.73931 c -6.279,-16.019 -8.672,-35.062 -12.945,-52.028 -5.773,-22.926 -5.228,-40.533 -2.833,-63.721 2.239,-21.679 0.702,-43.526 9.829,-64.02499 8.83,-19.832005 24.872,-27.163005 41.403,-39.676005 9.247,-6.999 15.5209998,-15.938 23.57199978,-23.688 7.38600002,12.564 11.39100022,36.918 8.92100022,52.142995 -1.0639997,6.56601 0.451,4.405 -5.1990002,8.72201 -3.74200002,2.859 -7.579,3.817 -11.801,6.053 -7.2929998,3.85999 -14.0719998,6.51299 -18.9739998,13.42399 -11.334,15.981 -7.974,39.304 -7.974,58.072 0,22.466 -8.75,38.735 -12.246,60.559 -1.868,11.657 4.365,22.15 5.27,34.19 0.973,12.963 -3.409,14.835 -15.875,13.824 -0.086,-1.708 -1.078,-3.229 -1.147,-4.849"
   id="path81"
   inkscape:connector-curvature="0"
   style="fill:#3658a5" />
																										<path
   clip-path="url(#SVGID_136_)"
   d="m 107.57953,295.73931 c 3.838,-17.661 -3.761,-34.234 0,-52.777 4.34,-21.399 -1.898,-38.631 -5.028,-59.468 -1.436,-9.557 -0.254,-20.095 -2.193,-29.703 -2.277999,-11.284 -7.940999,-22.021 -10.605999,-33.30099 -4.017,-16.99401 -7.868,-34.196005 -11.196,-51.520005 -1.942,-10.113 -5.829,-24.563 -3.026,-35.125 0.599,-2.258 0.596,-4.727 1.226,-6.999 10.203,0.796 21.396,-3.61401 31.816999,-3.98001 0.416,9.53001 -2.379,19.08001 -1.014,28.67501 1.583,11.13 6.785,21.689 9.025,32.747 4.748,23.435995 13.382,46.214995 18.774,69.426995 6.578,28.315 2.455,59.164 6.171,87.781 2.789,21.473 9.862,48.042 4.9,69.071 -14.535,9.439 -30.186,-8.618 -37.85,-17.828"
   id="path83"
   inkscape:connector-curvature="0"
   style="fill:#3658a5" />
											
											
											
											
											</svg>