<?xml version="1.0" encoding="UTF-8" standalone="no"?>
<!-- Generator: Adobe Illustrator 15.0.0, SVG Export Plug-In . SVG Version: 6.00 Build 0)  -->

<svg
   xmlns:dc="http://purl.org/dc/elements/1.1/"
   xmlns:cc="http://creativecommons.org/ns#"
   xmlns:rdf="http://www.w3.org/1999/02/22-rdf-syntax-ns#"
   xmlns:svg="http://www.w3.org/2000/svg"
   xmlns="http://www.w3.org/2000/svg"
   xmlns:sodipodi="http://sodipodi.sourceforge.net/DTD/sodipodi-0.dtd"
   xmlns:inkscape="http://www.inkscape.org/namespaces/inkscape"
   version="1.1"
   id="Layer_1"
   x="0px"
   y="0px"
   width="55mm"
   height="120mm"
   viewBox="-81.333 20.417 207.87401 453.54331"
   enable-background="new -81.333 20.417 1118.67 767.917"
   xml:space="preserve"
   sodipodi:docname="3.svg"
   inkscape:version="0.92.3 (2405546, 2018-03-11)"><metadata
   id="metadata112"><rdf:RDF><cc:Work
       rdf:about=""><dc:format>image/svg+xml</dc:format><dc:type
         rdf:resource="http://purl.org/dc/dcmitype/StillImage" /><dc:title></dc:title></cc:Work></rdf:RDF></metadata><defs
   id="defs110" /><sodipodi:namedview
   pagecolor="#ffffff"
   bordercolor="#666666"
   borderopacity="1"
   objecttolerance="10"
   gridtolerance="10"
   guidetolerance="10"
   inkscape:pageopacity="0"
   inkscape:pageshadow="2"
   inkscape:window-width="1920"
   inkscape:window-height="1017"
   id="namedview108"
   showgrid="false"
   units="mm"
   inkscape:zoom="1.436122"
   inkscape:cx="407.00226"
   inkscape:cy="265.88871"
   inkscape:window-x="-8"
   inkscape:window-y="-8"
   inkscape:window-maximized="1"
   inkscape:current-layer="Layer_1"
   inkscape:snap-global="false" />

	<!--  kable  -->
																														
																										
																								<path
   clip-path="url(#SVGID_136_)"
   d="m -66.678312,252.60775 c -7.479,-7.666 -8.059,-35.658 -9.052,-46.726 -1.666,-18.574 5.255,-37.758 7.052,-56.354 1.965,-20.34 8.689,-34.5 19.854,-51.438006 12.188,-18.48801 20.541,-38.64801 30.119,-59.46101 5.424,-11.783 5.336,-21.01999 18.50600051,-14.74899 8.46299999,4.02799 19.32099949,11.99899 16.51799949,21.69799 -2.868,9.92 -13.3169994,15.628 -16.21899949,26.976 -2.86500001,11.206 -3.28300001,22.68801 -6.50300001,33.851016 -5.7720005,20.008 -14.8040005,40.543 -19.1010005,61.225 -4.533,21.816 -2.17,46.313 -2.174,68.948 -0.002,12.888 -2.843,27.788 -19.055,26.052 -11.261,-1.206 -21.657,-11.767 -22.945,-23.022"
   id="path103"
   inkscape:connector-curvature="0"
   style="fill:#83be60" />
																										<path
   clip-path="url(#SVGID_136_)"
   d="m 75.321688,265.60775 c -13.366,-15.849 -3.561,-42.512 -6.223,-62 -2.406,-17.617 -7.564,-35.819 -11,-52.754 -3.458,-17.044 -5.932,-36.012 -6.777,-54.000006 -1.01,-21.47901 -4.713,-33.71901 7.722,-52.49701 2.936,-4.431 6.239,-8.466 8.5,-13.47 3.561,7.162 9.555,14.528 15.082,20.468 3.317,3.563 7.729,5.836 9.863,10.275 3.069,6.384 0.923,3.56 0.059,10.226 -2.378,18.326 0.745,32.771016 7.021,50.454016 9.489002,26.738 17.448002,54.165 20.703002,82.427 1.479,12.853 3.371,24.861 4.052,37.898 0.62,11.877 3.911,16.945 -8.465,20.726 -11.541,3.525 -31.396002,7.457 -43.338002,3.123 -1.692,-3.802 -2.567,-7.582 -2.197,-11.877"
   id="path105"
   inkscape:connector-curvature="0"
   style="fill:#83be60" />
																										
											
											
											</svg>