<?xml version="1.0" encoding="utf-8"?>
<!-- Generator: Adobe Illustrator 15.0.0, SVG Export Plug-In . SVG Version: 6.00 Build 0)  -->
<!DOCTYPE svg PUBLIC "-//W3C//DTD SVG 1.1//EN" "http://www.w3.org/Graphics/SVG/1.1/DTD/svg11.dtd">
<svg version="1.1" id="Layer_1" xmlns="http://www.w3.org/2000/svg" xmlns:xlink="http://www.w3.org/1999/xlink" x="0px" y="0px"
	 width="1118.67px" height="767.917px" viewBox="-81.333 20.417 1118.67 767.917"
	 enable-background="new -81.333 20.417 1118.67 767.917" xml:space="preserve">

	<!--  kable  -->
																														
																										
																								<path clip-path="url(#SVGID_136_)" fill="#E01314" d="M744.997,311.291
																											c-8.262-12.61-2.705-36.021-2-50.974c0.804-17.057-2.206-28.057-9.749-43.056
																											c-7.471-14.854-11.935-31.819-19.721-46.024c-7.71-14.064-19.772-18.829-34.356-25.121
																											c-1.141-14.631-9.404-41.913,14.906-33.854c23.547,7.806,42.114,24.277,55.214,45.247
																											c9.18,14.695,16.123,32.254,21.754,48.582c5.085,14.743,3.138,30.385,6.123,45.422
																											c2.181,10.985,5.351,21.44,5.825,33.074c0.253,6.161,4.167,26.229,1.128,30.774
																											c-0.166,0.253-0.332,0.505-0.498,0.758c-15.681,7.2-28.828-8.983-43.626-10.829"/>
																										<path clip-path="url(#SVGID_136_)" fill="#E01314" d="M571.997,296.291
																											c-1.144-9.496,1.342-18.368-0.027-27.977c-1.225-8.605-2.262-17.835-2.97-26.297
																											c-1.717-20.525,4.247-37.45,8.997-56.655c5.047-20.407,10.013-40.674,17.023-60.625
																											c6.983-19.879,13.896-44.378,36.867-50.415c3.344,8.628,10.893,20.407,8.859,28.741
																											c-1.544,6.332-7.534,13.026-10,19.759c-6.927,18.904-14.148,37.673-22.021,57.189
																											c-8.604,21.33-8.729,40.477-8.729,64.263c0,14.313,2.439,26.118,5.223,39.713
																											c1.588,7.755,3.893,18.746-0.476,26.054c-5.153,8.624-19.884,7.681-28.775,4.301
																											c-17.53-6.665-3.271-19.421-3.972-32.052"/>
											
											</svg>