<?xml version="1.0" encoding="UTF-8" standalone="no"?>
<!-- Generator: Adobe Illustrator 15.0.0, SVG Export Plug-In . SVG Version: 6.00 Build 0)  -->

<svg
   xmlns:dc="http://purl.org/dc/elements/1.1/"
   xmlns:cc="http://creativecommons.org/ns#"
   xmlns:rdf="http://www.w3.org/1999/02/22-rdf-syntax-ns#"
   xmlns:svg="http://www.w3.org/2000/svg"
   xmlns="http://www.w3.org/2000/svg"
   xmlns:sodipodi="http://sodipodi.sourceforge.net/DTD/sodipodi-0.dtd"
   xmlns:inkscape="http://www.inkscape.org/namespaces/inkscape"
   version="1.1"
   id="Layer_1"
   x="0px"
   y="0px"
   width="60mm"
   height="119mm"
   viewBox="-81.333 20.417 226.77165 449.76379"
   enable-background="new -81.333 20.417 1118.67 767.917"
   xml:space="preserve"
   sodipodi:docname="4.svg"
   inkscape:version="0.92.3 (2405546, 2018-03-11)"><metadata
   id="metadata134"><rdf:RDF><cc:Work
       rdf:about=""><dc:format>image/svg+xml</dc:format><dc:type
         rdf:resource="http://purl.org/dc/dcmitype/StillImage" /><dc:title></dc:title></cc:Work></rdf:RDF></metadata><defs
   id="defs132" /><sodipodi:namedview
   pagecolor="#ffffff"
   bordercolor="#666666"
   borderopacity="1"
   objecttolerance="10"
   gridtolerance="10"
   guidetolerance="10"
   inkscape:pageopacity="0"
   inkscape:pageshadow="2"
   inkscape:window-width="1920"
   inkscape:window-height="1017"
   id="namedview130"
   showgrid="false"
   units="mm"
   inkscape:zoom="1.0154916"
   inkscape:cx="407.22253"
   inkscape:cy="243.00768"
   inkscape:window-x="-8"
   inkscape:window-y="-8"
   inkscape:window-maximized="1"
   inkscape:current-layer="Layer_1" />

	<!--  kable  -->
																														
																										
																								<path
   clip-path="url(#SVGID_136_)"
   d="m 103.92816,258.03412 c -8.261998,-12.61 -2.705,-36.021 -2,-50.974 0.804,-17.057 -2.205998,-28.057 -9.748998,-43.056 -7.471,-14.854 -11.935,-31.819 -19.721,-46.024 -7.71,-14.064 -19.772,-18.828998 -34.356,-25.120998 -1.141,-14.63101 -9.404,-41.91301 14.906,-33.85401 23.547,7.806 42.114,24.277 55.213998,45.247008 9.18,14.695 16.123,32.254 21.754,48.582 5.085,14.743 3.138,30.385 6.123,45.422 2.181,10.985 5.351,21.44 5.825,33.074 0.253,6.161 4.167,26.229 1.128,30.774 -0.166,0.253 -0.332,0.505 -0.498,0.758 -15.681,7.2 -28.828,-8.983 -43.625998,-10.829"
   id="path125"
   inkscape:connector-curvature="0"
   style="fill:#e01314" />
																										<path
   clip-path="url(#SVGID_136_)"
   d="m -69.071838,243.03412 c -1.144,-9.496 1.342,-18.368 -0.027,-27.977 -1.225,-8.605 -2.262,-17.835 -2.97,-26.297 -1.717,-20.525 4.247,-37.45 8.997,-56.655 5.047,-20.407 10.013,-40.673998 17.023,-60.625008 6.983,-19.879 13.896,-44.378 36.8670005,-50.415 3.344,8.628 10.893,20.407 8.85899996,28.741 -1.54399996,6.332 -7.53400026,13.026 -10.00000046,19.759 -6.927,18.90401 -14.148,37.673008 -22.021,57.189008 -8.604,21.33 -8.729,40.477 -8.729,64.263 0,14.313 2.439,26.118 5.223,39.713 1.588,7.755 3.893,18.746 -0.476,26.054 -5.153,8.624 -19.884,7.681 -28.775,4.301 -17.53,-6.665 -3.271,-19.421 -3.972,-32.052"
   id="path127"
   inkscape:connector-curvature="0"
   style="fill:#e01314" />
											
											</svg>